<svg xmlns="http://www.w3.org/2000/svg" viewBox="0 0 1793.43 901.46"><defs><style>.cls-1{fill:#767793;opacity:0.05;isolation:isolate;}</style></defs><g id="Layer_2" data-name="Layer 2"><g id="slime"><path id="fg" class="cls-1" d="M1347.9,658.48c-1.83-.16-.29-4.84.6-5.89C1350,654.18,1348.5,657,1347.9,658.48Zm247.4-479.8c-.8-10.3-6.1,1.5-6.6,6C1592.9,184.08,1592.9,180.78,1595.3,178.68ZM1351.1,218c3.1.16,7.16-1.45,9.9-2.1,5-3.22-1.78-20.33-5.3-12v2c-1-.29-.63.72-.7,1.31h-.7c.7,2.2-2.8,2.2-2.6,4h-1.3c0,1.65-5.67,2.58-6.6,2.71-4.92,2.5-4.16,17,.7,8.2,1.89-.7,2.3-2.65,4.6-2.71v-.7C1349.61,218.5,1351.59,219.19,1351.1,218Zm258-136c2.15-2.7,6.42-3.06,8.6-6.7,2.93-4.69,9-8.55,11.2-13.89-7.33.56-11,3.69-13.9,9.3-4.09,6.22-8,5.38-11.2,11.2C1604.83,85.75,1607,83.9,1609.1,82Zm-37.5,122.3c1.19.49.54-1.49.7-2,1.19.5.54-1.49.7-2,1.19.5.54-1.49.7-2,1,.32.63-.73.7-1.3.92-1.79,5.43-4.39,6-6.59C1569.49,186.91,1563,214.7,1571.6,204.28Zm-152.1,28.3c-.35,3.7,1.72,1.23,2-1.3C1419.7,231,1420.5,231.88,1419.5,232.58Zm-90.1-14.5c2.61-4.85-7-3-7.9.61C1321.6,223.88,1328.7,220.58,1329.4,218.08Zm18.4,447.7c1.55-.48.16-2.58-.7-3.29C1343.9,666,1344.62,673.92,1347.8,665.78Zm78.3-442.4c-.3-13.3-11.3-.7-5.2,6C1423.8,228.48,1424.1,225.18,1426.1,223.38ZM1336,85.78c-1.15-.16-1.47.15-1.3,1.31C1335.85,87.25,1336.17,86.94,1336,85.78Zm201.4,82.7c-.43-2.51.83-4.78.7-6.9,2.24-5.06.09-15.7,2.8-19.79,2.33-5.4,7.21-10.31,13.3-13.3-7.94-4.52-13.93,4.75-17.1,9.79-3,.31-1.9,17.22-2.1,21-.4,2-5.3,8.6-1.9,11.2.43.4,1,10.66.7,12.5C1540.1,182.68,1537,172.28,1537.4,168.48Zm26.9,41.8c-1.51.19-1.94.93-2.6,1.91C1561.77,213.73,1565,211.61,1564.3,210.28Zm-157.2,506.1c-1.8,16.9,13.6-6.1,3.9-4.6C1409.52,713.55,1408.33,714.28,1407.1,716.38Zm-45.4-388.3c-.43,4.14,2,.34,2.6-2C1362.6,325.68,1362.7,327.28,1361.7,328.08Zm1.9-300.9c2.9-.7,5.2-6.7,5.3-10.5C1364.7,17.68,1364.3,22.68,1363.6,27.18ZM1351,88.38c-2.11,3.46,4.37,8.06,7.3,10.6,1.7,5.3,4.6,9.8,9.2,4.6-.1-1.9.8-6.1-2-6.6C1359.8,88.28,1363.5,86.08,1351,88.38Zm138.3,447.8c.21-8.29-5.2-10.16-1.29-.69C1489.16,535.21,1488.26,536.43,1489.3,536.18ZM1370.1,68.68a23.11,23.11,0,0,0-2,9.2C1373.76,78,1375.45,66.79,1370.1,68.68Zm223.2,668.8c-4.4-1.6-7.6,8.3-8.5,11.8C1589.5,749.18,1593.4,742.48,1593.3,737.48Zm-221.8-438.4c2.72,2.71,6.56-7.82,2.6-6.5C1371.9,295.28,1370,294.38,1371.5,299.08Zm186.3,374.5c.43,3,4.8,10.94,7.3,9.31-1-4.26-3-18.3-9.9-19.81C1553.9,666,1555.5,672.38,1557.8,673.58Zm23.7,46.1c.76,0,2.27,1.35,2,0h.7C1585.55,691.1,1568.42,700.85,1581.5,719.68Zm-307.2,63.2c-10.16,21.61,22.28,11.53,10.3.6,0-2.17-2.77-3.44-2.6-5.9-1,.27-.62-.69-.7-1.3-1.33-1-3.36-4.53-4-6.59-2.3-.61-.4-7.31-2.7-7.91v-3.3c-1.19.49-.54-1.49-.7-2-1.63.53.23-2.52-1.4-2-.17-.5.49-2.49-.7-2-.4-.53-1-10-.7-11.91-1.19.51-.54-1.5-.7-2-1.6.4-.4-3-2.1-2.6,0-.51.2-1.4-.7-1.09-.14-.41.47-2.57-.7-2-.14-.4.47-2.57-.7-2-.8-3.24-2-7.84-6.7-9.9.37,6.88,2,14.63,5.4,17.69.19.58-.51,2.44.7,2,.19.57-.5,2.45.7,2a144.34,144.34,0,0,1,.7,17.8C1273.88,769.74,1275.68,770.27,1274.3,782.88Zm-8.7-710.1c-15.21,3.88-4.89-.14-4.7,13,3.34-4.37,5.89-17.07,11.9-11.09.62,0,.79,0,.7-.71,3.8,1.2,1.4-7.4,4-7.9v-2c11.6-11-2.92-19.31-11.3-26.2-5-4.61.27,9.46,2.6,10.5C1278.23,55,1274.71,68.25,1265.6,72.78Zm32.8-6.7c.55-2.51-1.71-5.83-2.7-3.9C1293.65,63.43,1295.79,67.26,1298.4,66.08ZM1280,553.18c18.4-13.24-.44-19.16-9.9-32.3-7.4-1-2.8,9.9-7.3,11.9v2c-2.59,1.31,4.09,10.46-2.7,15.2-1.63,3-3.83,12.35,1.4,7.2v-2c1,.3.62-.71.7-1.3,9.89-9.7.13-10.49,4.1-15.2.81-5,6.22-2.34,8.5,0C1277.79,542.64,1272.51,564.82,1280,553.18Zm31-333.8c-.62-9.13-19.3-.44-23.7-3.19-14.37-.12,4.94,8.64,7.9,5.89C1301.8,217.28,1304.5,229.78,1311,219.38Zm-99.5-80.8c-6.2,0-10.2,11.5-1.9,9.8C1214.67,151.13,1212.65,140.8,1211.5,138.58Zm52,66.4c-33.45,14.73-.19,8.61,11.8,7.9-1-2.89-3.14-4.2-5.3-5.2C1268.1,205,1267.3,201.28,1263.5,205Zm49.4-25.7c1.65-5.07-2.69-4-5.2-1.89C1307.5,180.18,1311.3,179.18,1312.9,179.28Zm-83.5,29c-8.57,5.64-7.73.38-14-3.29-10.3,14.18,9.13,4.46,12,15.8,7.2,1.89-2.6-8.21,16.4-5.21-3.9-14.8-4-8.1-14.4-7.3Zm13.7,32.2c-2.19,2,1.09,5.55,3.9,5.3C1246.4,242.68,1244.8,242.48,1243.1,240.48Zm-6.4-212.6Zm3.2-5.9c-3.09.1-5.32,4.22-3.2,5.21C1238.45,29.13,1243.08,24.63,1239.9,22Zm-28.4,444.3c-1.4,3.9,1.1,10.5,5.3,7.9C1216.7,469.88,1214.6,467.68,1211.5,466.28Zm128.3,64.6c.53,0,1.64.27,1.3-.69h2c6.42-7.52-6.53-1.8-9.9-2-6.8,8.39-5.8,11.39-17.2,14.59-5-.13-1.7,7.42.9,4.5,6-.74,8.2,2.35,9.9,7.31,7.74,6,13.07-3.35,4.6-6.51.1-1.6-2.7-1.4-2-3.3C1326.86,538.4,1336.64,533.65,1339.8,530.88Zm-1.9,148c1.19.5.54-1.49.7-2C1337.41,676.39,1338.06,678.38,1337.9,678.88Zm32.3-73.7c1.63.53-.23-2.52,1.4-2v-2c1.18.51.54-1.5.7-2,1.18.51.54-1.5.7-2,1.18.51.54-1.5.7-2,1.5.1.8-2.8,1.4-3.9,12.57-19.44-7.26-7.22-5.4,5.21-1.19-.48-.54,1.48-.7,2-1.19-.49-.54,1.48-.7,2-1.27-.61-.5,2.14-.7,2.6-2.2.19.2,6.39-2.1,6.59v3.9c-1.27-.61-.5,2.16-.7,2.61-1.8.69-.7,5.19-1.4,7.19,4,5.71-2.48,14.72-2.5,19.7,19,.86,1.68-12.37,8.6-29v.3C1369.7,611.28,1369.9,608.28,1370.2,605.18Zm-120.8-481.1c-2.67,2.9-12.87,10.41-8.2,12.5,9.84-.37,18.12,8,21.5,18,3.5,1.52,10.17,1.42,11.1,6.6,2.07.68,1.86,4.27,4.6,4-.4,1.59,3,.39,2.6,2.09,12.1-1.4,2.7,17.8,14.4,8.6.1-6.1-2-3.6-3.3-6.6-4-.3-5.08-4.88-8.5-5.3C1274.21,151.29,1249,141.24,1249.4,124.08Zm137.2,544.3c8.08,7.4.86-9.78-3.3-6.59.27.38-.68,4.67.7,3.89C1384.58,667.46,1385.08,668.46,1386.6,668.38Zm0-452.2c1.93.64,1.14-1.55,1.3-2.6C1383.58,213,1384.82,218.37,1386.6,216.18Zm-192.8,186.9v2.6C1203.4,405.88,1204.3,394.08,1193.8,403.08Zm220.8-206c-2.77-6.36-7.36-10.88-9.9-17.8-1,.36-2.9-5.3-2.7-5.89-1,.3-.63-.73-.7-1.31-1.19.49-.54-1.49-.7-2-1.56,0-1.42-7.71-1.4-9.79-1.19.5-.54-1.51-.7-2-1,.37-.61-.85-.7-1.4-9.94-10.06-4.94-39-21.5-48.1-3,3.43.84,6.76,1.4,9.2,2.55,1.42,2.27,8.59,4.7,9.2,2.53,13.33,4.82,33.89,10.8,45.41a13.38,13.38,0,0,0,4,6.1c.4.89.1,2.79,1.4,2.59-.32,1.87,1,.74.7,2.6,1-.34.63.75.7,1.31,1-.35.63.75.7,1.3,1.85,1.17,2.17,5.28,4.6,6.59,1.88,3.72,4,9.2,8,10.61C1417.56,206.65,1417,198.78,1414.6,197.08Zm-197.2,140.1c10.7-6.63,12.06-7.91,25.7-5.29-5.2-9.75-11.53-20.92-7.2-32.9-5.17,0-4.73,3.89-5.3,8.59,1.43-.39,0,1.71,1.4,1.3v2c1-.27.65.71.7,1.31,5.68,10.54-4.3,21.6-13.2,14.29-4.43-.66-1.35,5.24-10.6,9.3-.4.16-3.25-.53-2.6.7H1203c.79,1.38-3.54.44-3.9.71.57,1-8.68,2.94-8.6,1.4C1174.71,341.83,1217.05,342.32,1217.4,337.18Zm70.3,279.9c1.6.4.4-3,2.1-2.6v-2c1.6.4.4-3,2.1-2.6v-2c1.26.62.5-2.15.7-2.6,1.63.54-.23-2.52,1.4-2,1-7.13,11.79-11.19,13.1-17.2,1.2-.41,3.18-12.79,1.4-13.11v-3.29c-1.28.63-.49-2.17-.7-2.61-2.5-1.29,0-6.39-2.7-7.89-6.82-.8,1.67,12.78-2,15.69-.3.68.64,3-.7,2.61-.25.7.55,2.34-.7,2v2.59c-2-.2-.1,4.8-2.1,4.6V588c-1-.24-.61.69-.7,1.31h-.7c.5,1.8-1.8,1.4-1.3,3.3-3.05,2.22-5.5,4.19-8.6,6.6-.27,3.37-1.77,6.09-2,8.6-1.44-.4,0,1.71-1.4,1.3-.16.56.49,2.46-.7,2-.07.61.3,1.59-.7,1.3-.2.49.57,3.19-.7,2.6v3.3c-1.33-.71-.46,2.91-.7,3.31-1.27-.62-.5,2.15-.7,2.6-1.18-.5-.54,1.5-.7,2-1.18-.51-.54,1.5-.7,2-1.7.74-2.43,4.62-3.4,7.19-14.45,14.2.31,24.5-21.71,43.5-16.59,7.21.2,14.26-21.19,25.1,19.13-3.53,18.47-2.33,12.6,16.41,5.16-.33,9.25-1.1,13.8.69-6.19-12.38-7.85-27.83-2.4-38.9,5.43-5.54,11.82-12.58,14.5-17.79.3-1.54,1-9.28.7-11.81,1.33.72.46-2.9.7-3.3,1.27.62.5-2.15.7-2.6,1.27.62.5-2.15.7-2.6,1.6.4.4-3,2.1-2.6-.2-2.3,2.2-2.7,2-4.6,1.2-1.3,3.7-1.9,3.3-3.9C1286.08,630,1286.05,621.26,1287.7,617.08Zm-38-337.7c1,.3.62-.71.7-1.3,1.4.2.8-2.3,1.4-3.3,2.2-.8,1.3-3.9,4-4.6,1.43-3.08,4.37-4.47,4.7-8.6,1.9-2.7,1.6-7.5-2-8.6-.21,4.1-.3,8.92-1.4,11.8C1246.12,274.32,1236.33,310.3,1249.7,279.38Zm457.5,186.2c-13.46,4.07,18.26,39.33,5.3,6.6C1710.73,470.58,1710,467.92,1707.2,465.58Zm-730.6-90.1c.7,2.6,4.2,5.6,6.6,6.6C986.8,375.58,982.7,373.28,976.6,375.48ZM970,128.58c10.14-10.57-3.32-5.79-7.2.71C963,133.59,968.2,131.41,970,128.58Zm9.1,131.6c22.51,3.17,20.89-10.54,7.3-5.9-2.1,3.3-8.5-2.6-13.2,4C973.8,261.88,976.5,260.58,979.1,260.18ZM956.8,81.88c2.29-2.64,5.87-5.78,8.5-8.6C951,71.16,946.05,98.59,956.8,81.88Zm-19.9,29.7c9.3-.6,6.9-13.8,11.2-20.4-2.55.72-5.07,2.71-5.1,5.9-1.44-.4,0,1.71-1.4,1.3v2c-1-.31-.63.73-.7,1.31-1.8-.41-.3,3.59-2.1,3.29C939.6,107.38,935,109.68,936.9,111.58Zm50.4-44.2a132.15,132.15,0,0,0-2.1-16.5c-1.6.4-.4-3-2.1-2.6v-2c-.92.37-.51-.86-.6-1.3-4.56-4.64-.25-14.45-3.3-19.09-16.8-15.71-6,14.59-5.3,21.79,4.4,2.5,7.4,8,6.6,13.1,3.1,1.9-1.5,10.5-2.6,11.2-.4,4.1,3.1,3.8,3.3,6.6,2.4,1-.4,8.2,2.1,9.2-.43,4.34.91,7.25,4.7,9.2,2.51,2.12,6,5.54,9.3,6.61-.4,1.79,3.6.29,3.3,2.09,5.07.41-3.26-3.81-2.6-5.9-4.38-2.92-5.92-7.4-8.6-10.5-.17-.57.5-2.44-.7-2-.27-.43.68-4.65-.7-3.9C987.59,83.25,988.91,66.13,987.3,67.38Zm86.7,495.7c-11.47-.36-.81,12.83,1.9,16.4,12.27,3.37,18.19-10.12,26.4-15.1C1094.2,548.31,1086,576.49,1074,563.08Zm13.8,220.5c.4-5-6.65,2-6.6,4.6C1085.4,787.68,1085.1,785.18,1087.8,783.58Zm-154-705.7c4.5-5,1.9-5.9-4.5-5.9C929.5,75.48,931.2,76.78,933.8,77.88Zm203.4,633.9c-1.3-.1-1,1.2-1.4,2.6C1136.8,714.58,1137.7,713.18,1137.2,711.78Zm-46.1-311.9c1.16-1.21,5.45-9.56.2-10.6-.4.7-.3,2.3-1.4,2-.07.61.3,1.6-.7,1.3-.2.48.57,3.2-.7,2.6v2.6c-2.38,2-2.07,9.72-2.1,13.2,2.56-.75,1.59-8.12,4-8.5A19.73,19.73,0,0,1,1091.1,399.88ZM1016,796.78h0c.1,0,0-.1,0,0Zm.1,0c8.33,7.64,22.95-1.89,33.4-.2,5.38,7.09,9.4-1.85,13.8,1.4,4.8-.2,7.2-.3,7.2-4-5.75,1.33-15.12,2.56-21.1,2,.1-1.5-8.3-4.6-9.2-2-2.78-.29-4.21,2.64-7.2,2.1-4,2.75-11.91,0-16.9.7Zm-1.4-.7c-1.6-2.9-3.7-5.6-7.9-5.9C1008.1,793.88,1011.7,795.18,1014.7,796.08Zm-69,94.8c2.74-3.29,6.08-6.64,10.5-8.59C943.24,878.7,928.36,905.67,945.7,890.88ZM813.3,780.28c.6.7-.1.1.7.7v-1.3h-1.3C813.2,780.38,812.6,779.68,813.3,780.28Zm2.7-30.2c-2.92.49-6.72,1.66-10.6,2,2.8,4.6,5.6,13.1,1.3,16.5,6.34,12,2.63-4.71,5.4-7.19,1.2-5.85,9.21-6.3,13.8-6.81-.61-1.26,2.15-.49,2.6-.7-.72-1.33,2.9-.46,3.3-.7C850.9,750.06,819.33,749.33,816,750.08Zm37.9-9.3c-1.2-.61-6.11,11.91-4.6,12.5C861.33,760.21,857.81,745.36,853.9,740.78Zm367.4,144.4c-.68-15.69-3.88-28.73-1.3-43.5,4.61-5.17,3.56-16.3,5.6-23.6,6.52-13.61.06-19.63-13.8-15.8-3.75-.67-4.54,4.29-7.9,4.61-3.54,3.77-7.44,7.71-11.8,9.8.4,2-7.7,2.19-7.2,3.49h-2c.4,1.7-3,.5-2.6,2.1-6.64,2.26-8.61,13-15.7,14.5-1.63,1.19-1.82,4.11-3.3,4.61,0,.6.28,1.58-.7,1.29-1.43,11.82-20.27,7.88-23.8,17.21.16.56,0,1.1-.7.89,0,.44.37,2.54-.7,2,.23,3.21-1.1,7.09-.7,10.5-3,4.9-4.36,21.59,1.2,27.6-12.91-3.35-36.11,1.24-50.5,0,3.6-2.26,2.07-7.35,7.3-7.6,4.34,5.8,28.71.77,31-3.9.2-1.09,1.12-10.22.7-12.49,1.28.55.49-2.12.7-2.61,1.73.61-.33-3.2,1.4-2.6.39-.67-.8-4.49.7-3.9-.07-6.35,1.9-12.36.7-18.4-2.1-7.3-12.7-6.6-15.9-13.1,9-7.92-6.74-22.89-1.3-32.29,3.51,10.14,4,20.21,10,27,2,8.55,12,21.65,21.9,14.9,5.67-4.13,14.62-10.42,17.8-17.7,3.21-3.2,3.85-6.38,7.3-9.89,3.07-.61,5.46-2.6,7.9-2.71-.35-1.09.76-.56,1.3-.7-.51-1.23,1.51-.5,2-.7-.36-1.09.76-.56,1.3-.7-.52-1.23,1.52-.5,2-.7,8.86-3.8,14.87-10,4.6-19.2,2-.2.65,1.1,3.3.7-.53,1.17,1.52.56,2,.7-.85,1.43,4.26.41,4.6.71,6.79,3.12,15.75-4.21,22.4-2.6,6.12-2.43,10.54-18,7.1-25.11v-2c-1.26.5-.49-1.5-.7-2-1.36.79-.45-3.53-.7-3.9,6.18-10.06-8.93-20.78-15.1-25.1,0-5.4.3-15.4-3.3-19.1-.92-4.77-5.76-8.54-8.6-13-2.09-.31-3.85-2.55-5.3-3.89-.8-.61-2.9-.11-2.6-1.41-.72.27-1.5.07-1.3-.69-17.45-2.91-26.58,14.54-29.9,26.79-3.21,4.83,4.3,12.16,0,17.1,5,14.5-6,36.09,9.8,43.41,4.3-4.61,8.9,1,10.5,5.89-16.8-1.1-22.6-11.6-38.8-2,.51-1.2-1.51-.52-2-.7,1.44-2.09,6-4.66,8.6-5.9-.48-1.19,1.49-.53,2-.7-.3-1,.72-.61,1.3-.7-.22-1.44,2.68,0,2.7-2,8.25-2.52,4.54-11.29,2.5-17.59-3.83-2.16,3.2-13.15.6-14.51-.23-.27.63-4.11-.7-3.29-.2-.32.56-3.32-.7-2.6.47-2.84.21-6.9,1.4-8.6-1.33.71-.46-2.91-.7-3.31-3-3.6.15-11.11-.7-15.8-1,.43-.63-.81-.7-1.3-1.33.73-.46-2.9-.7-3.3,2.61-1.74,3.92-6.32,7.4-7.3,5.07-7.59,18.1-3.64,15.9-17.9-1.3.6-1.6-7.6-3.5-7.2v-2c-1,.51-.61-.86-.7-1.3-4.58-8.49-5.1-9.94-15.2-7.19-11.88,2.65-14.38,2.48-23.6,12-9.58,13.42-25.69,23.6-34.9,37.09-4.57,5.06-2.54,23.8-.7,29.5,2.19,6.39,3.43,21.27,2.8,29.71,3.21,16.68,19.82,10.32,8.6,29.59-4.25-10.44-3.66-24.21-17.9-23.69,1.39-4,9.07-13.83,1.3-16.4.42-1.32-.8-.42-1.3-.71-1.2-2.9-4.1.7-3.9-4.6,1.3-1,7.3-10.8,3.9-13.2v-2.6c-1.14.22-.57-1.29-.7-2-1.52-2.28-.15-9.56-3.3-12.49,1.24.22.5-1.31.7-2,1.9.2.8-4.1,2.7-3.9v-2c2.2-.3.5-6.3,2.7-6.6,1.11-20.44,31.25-18.85,29.1-40.89,11.8,1,16.3-5.21,23-11.81,17.33,2.87,21.85-9.08,15.1-24.4-4.7-4.7-8-1.8-7.2-7.3,7-7.2-9.3-16.9-2.6-23.1.37-.61,3.31.89,2.6-.7h3.3c-.12-1.88,2.42,0,2,0,.59.1,1.57-.24,1.3.71,1.8,1.09-.1,1.59,2,2v1.3c1-.58.67.93.7,1.3,1.62-.55-.22,2.55,1.4,2,10.53,19.09,23.42-20.32,15.7-30.29-6.9-4.61-11.5-16.21-4.6-23,6.3-1.45,4.63-12,6.6-15.79,5.27-4.79,4.25-12.55.1-19-2.2-.31-.5-6.31-2.7-6.61v-2c-1.23.45-.51-1.46-.7-2-1.29.59-.48-2.13-.7-2.6-1.08.24-.57-.67-.7-1.3-1.08.24-.57-.67-.7-1.3-2.75-1.58-2.86-7.89-2.7-11.09-1.3.19-1-1.71-1.4-2.61-2.48-1.35-5.59-2.54-6-5.29-1.63.52.23-2.53-1.4-2v-3.9c-1.21.49-.52-1.48-.7-2-1,.3-.59-.71-.7-1.3h-.7c.5-1.9-1.8-1.5-1.3-3.3-2.09-6.27,2.11-17-3.3-22.39-.62-3.58-.94-3.25-2.6-6-.56.47-6.27-1-5.3.89h-2c-1.4-13.9,10.9-4.6,11.8-17.9,1.43.42,0-1.71,1.4-1.3,1-3.56,1.44-8.43-3.9-9.29.87-4.44,4.42-5.2,4-10.61-1.8.3-.3-3.7-2.1-3.3-.17-.27.37-1.82-.7-1.29-3-9.56-16.47-12.79-18.5-24.5,2.9-5.31-1-12.31-5.2-14.41-10.09-1.76-14.73,1.82-21.7,4.71.57.51-17.78.25-17.8.29.2,1.3-1.7,1-2.6,1.4-.51,1.67-2.31,1.73-2,3.3-1.14-.39-.57,1.43-.7,2-1.24-.57-.51,2.11-.7,2.6-1.31,4.71-7.71,4.89-11.3,8.69-2.2-.3-1.3,1.9-4,1.3v.7c-.12.62-3.44-.86-2.6.71h-3.3c-2.84,1.58-12.22,8.6-12.5,12.41-4.52,8.35-5.11,4-11.2,7.29-10.55,7.37-22.38,28.54-18.4,44.1,7.2,8.7,1.3,7.6-2,17.1-1,6.61-7.88,1.65-11.8,2.61.62,1.18-1.59.54-2,.7-15.61,9.64-2.34,15.33,1.8,29.29a42.41,42.41,0,0,1,7.2,9.31c.49.33-.72,2.65.7,2,5.77,9.69,2.7,30.54,19.2,33,0-1.91,3.8-.31,4-2.71,1.74.32,2-2,4-1.29,2.46-3.26,20.07.33,16.4,4.5,0,7-8.5,5.6-12.6,8-.17.1-4.23-.56-3.3.7-.12.13-4.91-.62-3.9.7-9.31-.66-14.85,5.22-26.3,4.7,13.8-16.54-3.35-11.53-3.6-34.8-1.9.21-.8-4.09-2.7-3.9.32-.68,0-1.55-.7-1.29a15.2,15.2,0,0,0-4.7-8.61v-1.29c-2.58-1.53-2.91-6-4-7.9-2-2.63-2.19-5.68-6-7.9-.28-3.25-5.28-4.53-5.2-7.91-1.94-.22-.61-2.82-2-2.7,0-.39.48-3.31-.7-2.59.5-2.49-.19-7.64-2.1-8.51-4.09-3.78-2-4,3.2-4,13.7,10,6.8,6.71,17.2-3.09,17.06-3,8.27-9.72,12.6-22.31-2-16,8.68-20.52,5.9-29.59a11.14,11.14,0,0,1-4-7.3c4.3,1.89,4.6,5.39,10.5,4.59-.1-.88.58-.71,1.3-.69,1.58-3.06,3.44-4.91,5.9-8,7.82.46,10.92-6.5,16.5-9.3,8.41-15.38,17.46-3.92,23.7-16.49,7.68-1.94,4.3-23.66,12.6-15.11,1.1.2,14.5,3.2,15.1.6,3.9-1.6,5.3-6.4,11.8-5.9,9,5.9,7.75,1.37,16.4-1.1,7.81-9.2,2.54-27.31-2.8-33.49-1.46-5.28,1.24-12.49-1.4-17.8-4.48-3.59-9.94-11.79-5.2-17,.31-13.84,24.58-11.85,21.2-30.39,0-.51-2.2-5.71,0-5.91-1-5.16,8.23-8.62,9.2-13.89,1.9.19.8-4.11,2.7-3.91-1.17-13.26,18.78-26.22,6.7-38.89-8.29-1.29,7.5-15-1.4-20.4-2.24-4.54-4.89-10.5-9.8-12.61-1.5-3-4.7-.6-4.6-6,5.86-6.16-8.89-14.48-1.3-17.7,4.73-4.23,8.88-8.4,11.9-13.69a15.77,15.77,0,0,0,7.4-9.9c3.46-3.56,1.87-13.12-.5-17.1-.7-11,11.3-3.81,10.5,3.29.9-.13.72.6.7,1.31,2-.21.1,4.79,2.1,4.59v2.6c-1.86-.75.46,4.66-1.4,3.9-.15,4.44.33,10.47-3.3,13.21-1.89,7.31-16.56,11.92-11.2,21.69-.25,2.5,1.14,5.14.7,7.91,2.3.19-.1,6.39,2.1,6.59,15.1,12.85,3.22,31.49,17.2,40.11,1,4.09-5.5,4.89-6.6,8.49-.2,5.5-5.8,7.7-7.3,11.8-2.2.3-.5,6.3-2.7,6.6-.54,2.33-1,5.63-2.8,6.51-.35,3.7-4.1,7-5.4,10.49-2.17,1.59-4,3-4,5.21-1.2-.27-.52,1.33-.7,2,6.08,32.32-19.74,17.89-21,40.89,1.9,0,.3,3.8,2.7,4V303a3.82,3.82,0,0,1,2,3.3c1.19-.32.54,1.38.7,2,1.58-1.45.32,11.84.7,11.79,1.27-.53.5,2.1.7,2.61,1,0,.64.51.7,1.3,6.59,4.75,5.41,19.95,5.4,29,3.7,7.25-1.32,21,4.2,28.29,0,8.17,10.63,11.35,13.8,18.51a25.07,25.07,0,0,0,5.9,9.9c.83,4.55,5.71,4.34,8.6,7.19,1.74-.62-.34,3.33,1.4,2.7v2.6c1.7-.4.5,3,2.1,2.6,2,5.42,8.43,8.78,10.5,14.51,4,8.16,11.87,13.78,15.1,23.89-7.31-.34-10.07,1.91-12.5-7.9-4.35-2.12-4.57-9.08-7.3-11.2-9.69-11.26-19.27-32.52-25.7-6.7-.18.73.39,1.51-.7,1.3v2.6c-1.33-.71-.46,2.9-.7,3.31-1.55.85-2.28,11.75.6,13.09,0,.64-.22,1.57.7,1.3,0,.57-.39,2.46.7,2,1.18,3,1.53,9.47,2.7,12.5,1.16-.49.56,1.5.7,2,.94-.33.68.73.7,1.3,1.16-.5.56,1.5.7,2,2.07,1.85.61,8.41,2.1,10.49,1.1,1.34,5,3.66,6.7,4.6v1.7c2.5,1.4.4,4.9,2.7,5.9,0,.24-.47,4.14.7,3.3,0,.22-.46,4.16.7,3.3,0,4,2.61,8,6,10.51,4.09,8.88,2.61,19,6.9,26.29,13.61,4.47,10.23-19,18.5-21.8.53-2.06,4.12-2.21,4-3.4,16.68-1.81,5.35-19.42,15.9-27.7,6-1.31,4.24,5.23,3.9,8.8,2.63,17.78-9.43,24-17.3,36.1-.23,5.22-5.83,9.18-8,13.8a6.82,6.82,0,0,0-2.6,4.6c-1.14-.48-.53.86-.7,1.3-1.3-.3-1,1.7-1.4,2.6-1,.5-1.5.8-1.3,2-8.84,6.83-6.43,24-14,30.9-.37,0,.7,3.55-.7,2.6-.36,0,.7,3.56-.7,2.6-1,4.43-.87,12.07-2.1,16.4-2.53,2.69-4.06,8.83-8.6,9.8-.11,1.37-2.26.68-2.6,2.71-1.2.49-2.4.39-2,2-4.44,3.8,1.65,11.53.8,16,1.83,10.19,7.55,25.66,15.3,32.1,1.54,11.56,17.42,19.3,23.1,29.6,15.38,9.43,9,32.83,24.6,42.8.8,8.5-3.7,24.5,5.2,30.3,4.9.6,17.5-2,18,4.8-20.36,21.1-26.4-4-29,31.71v1.29c-1.9-.2-.8,4.1-2.7,3.9v2c-1.89,5.12,2.13,15-3.4,19.1v1.3h-.7c-.15.28.49,2.74-.7,2-.15.28.49,2.74-.7,2-3.33,12.48.73,30.6.6,43.4-1.5-.1-2.1,7.8-4.1,7.8-5.06,7.36-6.32-1.53-2.7-5.9,1.7.4.5-3,2.1-2.6.1-.51-.44-2.57.7-2C1220.8,887.39,1220,884.45,1221.3,885.18Zm-35.8-305.1c5.84-3.88,3.88-14.16,8.7-17.7,4.86-6.79-3.54-20.41-11.1-11.9C1180.6,558.08,1168.2,579.88,1185.5,580.08ZM854.8,899.38c.12,3.16,2.5-2.06,3.3-3.29,1.6-1.71,5.4-2.61,5.3-5.21C856.1,886.08,857.9,897,854.8,899.38Zm170.6,1.5c-4.47-7.39-15.82-4.13-20.3-9.3-20.84-.61-28.37-16.07-29.4-32.29h.7c.8-6.2-2.3-2.5-3.3-5.3h-1.3c-9.73-8.29,4-12.53-3.4-18.5-2.55-2.09-.85-11.44.6-15.1-.1-8.9.9-13.2,9.2-16.5,3.4-12.3,3.1-15.1,18.5-16.4.9-4.2-5.9-3.7-8.6-2.7-.54,2.33-4,1.39-4.6,3.4-.66.2-2.38-.51-2,.7-5.45-.23-2.86,14.06-10.2,15.91.1,1.59-2.7,1.39-2,3.29-2,0-.53,2.92-2,2.71-4.1,4.8.84,41.37-11.4,30.3-7.86-4.65-15.39-15-17.9-22.3-5.72-4.95-10.39-13.4-10.7-21.3-1.16,1.08-1-8.29,0-7.21.43-.29-.82-5.48.7-4.59-.35-2.41,1-4.2.7-6.61,1.28.62.49-2.15.7-2.6,2-3.49,3.17-14.26,4.2-17.09,1.21.53.53-1.53.7-2,1.2.54.53-1.52.7-2,1.2.54.53-1.52.7-2,1.44.42,0-1.71,1.4-1.29v-2c1.6.41.4-3,2.1-2.59-.21-2,1.1-.63.7-3.31,1.6.41.4-3,2.1-2.59,0-2.54,1.52-3.88,1.4-5.9,1.63.53-.23-2.54,1.4-2v-2.81c1.27.65.5-2.17.7-2.6,2.07,1.61,1.26-19.13,1.4-21-1.34.73-.46-3-.7-3.41-2.1-.1.1-5.8-2.1-5.9-.89-5.59-5.8-9.86-9.4-14.4-17-24.15-2.26,17,4.1,21.1,3.88,14.89,1.28,26.56-4.6,39.5-1.26-.58-.5,2.14-.7,2.61-1.62-.59-.81,1.81-1,2.6-1.33-.72-.46,2.89-.7,3.3-1.33-.72-.46,2.89-.7,3.3-1.18-.69-.38,3-.6,3.3-1.33-.72-.46,2.89-.7,3.3-3.82,7.13-11.53,28.32-8.8,37.49,1.6-.4.4,3,2.1,2.6.2.54-.4,1.64.7,1.3-.3.64,1.21,5.06,2.1,4.61.8,4,4.17,5.48,4.1,9.19,3.36,9.59,16.36,19.75,24.5,29.6,5.89,2.19,11.35,6.49,12.5,11.3,13.82,23.92-6.5,19.3,7.9,24.4,5,0,7,6.21,10,8.6v2c1.15-.59.56,1.58.7,2,1.33-.72.46,2.91.7,3.3,1.13-.58.58,1.48.7,1.9,10.5.9,4.4-1.8,10.5-4.6C1007.31,892.41,1016,902.45,1025.4,900.88ZM831.1,687.28c-2.9-4.2-9.3-4.9-14.5-6.6,5,13.5,11.6.2,18.4,18.5,2.4,2.3,2.5-5.1,4.6-5.9.4-5.1-2.6-1.7-3.9-4.6h-1.3c.49-1.18-1.5-.54-2-.7C832.71,687,831.67,687.35,831.1,687.28Zm37.5,74.6c-5.5-2.4,1,9.3,5.9,7.9C873.9,766.58,871.7,762.58,868.6,761.88Zm48.1-645.1a32.35,32.35,0,0,0-1.3,3.3C924.5,119.08,926,108.18,916.7,116.78Zm8.5-50.1c-1-5.3-4.5-5.76-7.8-9.3C917.85,60.55,923.56,65.52,925.2,66.68Zm-28.3-25.6c1.23,3,8.76,11.1,11.2,9.21C908.91,44,904.09,40.74,896.9,41.08Zm29,855.7c.18-3.26-9.89.07-13.2,0C914,902.78,923.9,902.28,925.9,896.78Zm23-860.7c4.6,1,5.57-5.9,5.9-8.5,1.56.48-.16-2.17,1.4-1.7-.1-3.7,7.5-3.7,6.6-7.9,2.8-6.27-5.51-2.5,3.4-15.09,4.21-3.23-8.49-3.27-8,2-3.2,1.4-5.1,1-8.6.7-2.81-4.36-7.82-5.87-11.9-3.29-4.46,4.18-.4,4.78,3.3,5.2-.18,1.45,6.06,1.68,5.9,3.49C956.37,14.71,948.21,30.46,948.9,36.08ZM893.1.88h-6.6C885.45,4.82,890.17,3.31,893.1.88Zm223.7,578c-10.2-10.27-10.49,8.74-2.7,11.3C1124.64,589.6,1120.25,582.59,1116.8,578.88Zm362.7-60c-.88-5.12-2.85-4-.7,0Zm169.8-429.1c-6.7-.2-2.7,7.1-3.2,11.2C1649.7,99.08,1654.3,92.18,1649.3,89.78Zm10.4,344.3c-7.1-12.9-16.5-10-7.3-.7,2.52,2.86,5.76,5.43,6.7,9.2C1670.06,452.24,1672.74,435.91,1659.7,434.08Zm-14.6,274.2c-5.46,2.85-8.13,17.5.6,8.61,2.83-9,15.25-15.34,19.2-24.1,10.1-5.11,3.2-24.61-4.5-12.71.4,2.94-1,5.71-.7,8.5-1-.29-.63.72-.7,1.31-1.19-.49-.54,1.49-.7,2a11.41,11.41,0,0,0-3.3,5.29C1652.37,700.77,1646.73,704.05,1645.1,708.28Zm-7-474.3c-3.71,4.39-6.73,8.28-8.6,13.8-3.24,3.92-8.87,6.56-10.6,11.8-2-.2-.1,4.8-2.1,4.6-.25.68.63,3.11-.7,2.6.41,2.57-1,3.6-.7,5.9-1.33-.71-.46,2.9-.7,3.31-1-1.22-1.12,5.72,0,4.59-.59,5.44.18,13.32-2.1,16.51-.21.82.52,2.29-.7,2-.21.81.52,2.3-.7,2v2c-1.6-.4-.4,3-2.1,2.6-2.23,8.21-.45,23.14-4.1,29-.14.95.35,1.33-.7,1.3-.18.7.5,2.38-.7,2-.23.91.54,2.21-.7,2-.23.89.53,2.21-.7,2,.41,2.56-1,3.6-.7,5.89-1.63-.51.23,2.52-1.4,2-.14,1.67-1.07,7.3-.7,9.81-1.44-1-.4,5-.7,5.29-2.06-1.05.66,9.66-1.4,8.6-.27,5.84,1.54,17.09,0,20.41-1.58-.3-4.71,13.54-7.4,11.79-2.81,2.77-7.69-5.77-7.2-9.29-2.64-4.06-5.49-10.78-10.6-13.3h-2c.4-1.8-3.6-.3-3.3-2.1-1.66-.4-3.6-.4-4.6-2.69-3.25-1.76-10.89-7.6-7.8.6,9.35,5.81,15.62,16.28,19.9,28.29,0,6.9-2.7,14.8.7,21,10.6,27.2-5.4,22.2,3.3,30.3,17.79,13.08,1,37.5-5.6,48.7-1.43-.42,0,1.73-1.4,1.3v2c-1.17-.58-.55,1.57-.7,2-1.72-.62.33,3.23-1.4,2.6-.18.05.62,4.31-.7,3.3.78,17.42-1.22,34.55-7.4,47.5-12.67,8.33-5.83,20.39-23.2,18.5,8.37,18.72-1.94,25.23,18.5,44.7,3.93,8.41-2.19,14.53-6.4,21.1-1.7,15.1,11.8-4,15.8-7.2,18.11-11.14-4.54-14.88-7.3-24.39-1.81-2.41-3.86-5.11-4-7.9-1.15.29-.56-1.36-.7-2-1.38.84-.43-3.56-.7-3.9-6.92-19.43,17.81-28.92,20.6-44.1,3.79-19.82,3.68-50.81,16.2-66.19,12.7-12.76,1-33.46-1.3-48-.2-.59.58-3.22-.7-2.7-.23-.54.63-3.91-.7-3.3-.3-.41.76-6.76-.7-5.9,1.12-7.84-8.7-19,3.1-23.7,5.05-6,22-11.24,16.4-23v-3.3c-1.15,1.32-1.22-23,0-21.7.12-.16-.51-3.41.7-2.59.15-.09-.57-4.25.7-3.3-.37-3.37,1.07-7.23.7-10.6,7.44-11.6,2.71-28.63,6.7-38.81,6.27-15.94.87-44.81,18.6-58.5,1.82-5.3,8-9,10.6-13.3C1648.36,228.31,1639.46,225.61,1638.1,234Zm-486-169.9c7.77-8,3.92-13.58-3.2-2.59-2.68.6-6.91,3.63-6.6,7.19-5.2,13.66,25.12,33.61,11.9,9.9-.08-.61.31-1.58-.7-1.29-.17-.55.49-2.47-.7-2C1151.83,72.43,1151.09,66.93,1152.1,64.08Zm517.7,128.5c0,6.5-2.49,15-2.1,22.3C1674.57,217.68,1676.9,171.81,1669.8,192.58Zm58.5,342.8c26,4.54-6.87-60.29-1.2-21.7C1728.2,522.18,1722.8,529.18,1728.3,535.38Zm-7.3-404.1c3.6-3.3,4-4.8-2.6-5.2C1717.1,129,1717.4,132.08,1721,131.28Zm-585.2,445.6c-15.18,12.39,4.88,15.8,5.2,3.91C1143.53,577.15,1139.32,572.16,1135.8,576.88Zm376.5-265.3c.37-7.6-2.19-16.49-4.8-20.5-3.57-6.7-1.38-22.38-10-25-7.38,17.67,14.42,35.37,4.7,51.3.2,4.43,4.2,4.44,6,7.31.88,3.95,4.93,6.71,5.9,10.59,3.36,4.76,5.56,10.53,10.5,15.1,3.5,3.1,9.2,3.2,10.5,8.6,3.8,11.8-4.5,8.6,9.9,13.2,11.47,4.54,9.21-4.22,1.9-9.8-1.76-6.06-9.24-9.26-13.2-12.5-.88-2.86-3.4-5.16-5.9-7.2-2.71-5.62-8.2-10.69-10-16.7-2.3-1.92-4.15-8.62-4.1-11.09C1511.89,315.58,1514.11,310.89,1512.3,311.58Zm-5-136.1c-1.11,1.81-1.77,7.84-1.4,10.51-3.84,5.75-11.06,10-10,17.09-1.33-.71-.46,2.91-.7,3.31-1.18-.51-.54,1.5-.7,2-1.18-.51-.54,1.5-.7,2-1.18-.51-.54,1.5-.7,2-1.18-.51-.54,1.5-.7,2,0,4.36-11.61,23.93-4.4,26.79,10.67-12.24,9.61-29.66,14.7-42.1,2.57-8.56,14.15-6.16,8-17.69-1,.34-.62-.76-.7-1.31C1508,179.5,1509.57,175.7,1507.3,175.48Zm78,631.4c2.85-1.66,4.39-6.59,7.9-7.2,0-2,3.5.3,4-3.4-1.4.3-.3-1.2-1.9-.9-.2,2.2-5.1,1.1-5.3,3.4-.59.3-3.11-.63-2.6.7-3.43.47-4.14,4.26-7.3,5.9-1.19,2.41-3.92,1.62-5.3,4.6-8.4,2.92-17.15,11-23.7,13.21.41,1.43-1.71,0-1.3,1.39-1.2-.2-1.5.3-2,1.3-.9.4-2.8.1-2.6,1.4-.41.12-2.56-.45-2,.7h-2c.4,1.6-3,.4-2.6,2.1-2-.3-4.4,4.4-6.6,4-.1,2.3-7,1.6-5.9,4.6,18.48.15,25.15-13.68,39.5-18.39-.5-1.19,1.5-.54,2-.71-.41-1.43,1.71,0,1.3-1.4C1575.25,817.48,1580.31,812.42,1585.3,806.88Zm-7.3,75.4c6-10.92-2-19,.11-28.78.31-7.66.91-22.77-2.75-26.43-3.39,3.87-1.18,10-1.25,14.42,1.91-.32-.54,9.47-.12,11.37C1573.19,859.63,1574.44,879.13,1578,882.28Zm-74.2-44.1c-3.3,1.9-4.5,5.6-5.9,8.6C1505.3,847.08,1513,840.68,1503.8,838.18Zm5.4-166.4c.6-.08,1.59.32,1.3-.7.52-.17,2.48.5,2-.69,1.88.31.72-1,2.6-.71-.31-1,.73-.63,1.3-.7,5-5.3,30.17-4.86,23.6-14.5-3.71-.28-5,2.89-7.9,3.31-.5,3-4.6,1.39-5.2,3.39-15.08-4.11-25.11,14.66-36.7,18.61C1466.42,695.51,1506.68,678.26,1509.2,671.78Zm-36.4-104.2c-5.34,1.54-14.27,4.39-15.7,9.4,3.7-.5,9.4.7,10.5-2.1.61-.08,1.58.32,1.3-.7h2c-.3-1,.72-.62,1.3-.7-.48-1.06,1.59-.43,2-.6-.61-1.26,2.15-.49,2.6-.7-.61-1.26,2.15-.49,2.6-.7-.92-1.44,5-.4,5.3-.7-.66-1,3.69-.28,3.9-.5,7.8-.58,1.28-43.52-1.3-15.2C1485.63,562.88,1479.6,564.93,1472.8,567.58Zm-420.5-263.9c3.4,2.41,4.17-5,.7-5.3A17,17,0,0,0,1052.3,303.68Zm2.6-33.6c-3.9-1.2-7.4,15.2-2,15.8C1053.2,280.88,1058.2,274,1054.9,270.08Zm622.7,361.2c-2.22,2.75-6,6.43-7.3,10-1.27.38-1,2.81-2,2.61.07.41.2,1.72-.7,1.29-.12,4.44-7.55,8.21-6.6,13.8-1.74-.12.88,1.75.7,4.61,6.44,2.63,7.93-5.25,10.6-8.51v-2c1,.19.61-.54.7-1.2,1.9.3.2-4.2,2.1-3.9.18-.74-.38-1.48.7-1.3v-2c1,.24.6-.67.7-1.3,1.19.12.37-1.76,2-2,.77-2.46,3.55-5.33,5.2-7.31,1.1-7,10.4-9.1,11.2-15.7,5.1-8.62,16.09-19,23-29,3.92-2.75,4-7.91,7.3-10.61,4.66-10.42,21.58-10.62,24.5-21.79,2.32-6.42-4-15.64-10.2-16.3,3.2,15.9,8.1,15.6-7.4,25.6-3.84,3.74-10.61,6.52-13.2,11.8.32,1.89-1,.7-.7,2.6-1-.26-.6.68-.7,1.3-2.3,1.58-3.44,7.25-6.7,9.89-2,9-9.31,3-11.2,5.3-2-.2-.1,4.8-2.1,4.6v2.6c-1.27-.6-.5,2.15-.7,2.61-1.9-.21-.8,4.09-2.7,3.89C1690.71,619.34,1681.31,624,1677.6,631.28Zm-531.9-155.8c-4.9-2.1-6,1.2-5.9,6.5C1142.9,480.68,1146.3,478.88,1145.7,475.48Zm71.2-473.3c1-.3.62.73.7,1.31,1.05-.34.61.83.7,1.4,1.44-.41,0,1.7,1.4,1.29.08.57-.31,1.62.7,1.3-3.52,18.29,16.44,6.62,6.5-2.6-.09-.57.32-1.61-.7-1.29v-2c-.64.11-.78-.08-.7-.7C1224.87,1.44,1215.31-.46,1216.9,2.18Zm-208.8,120.5c3.15.29,5.34-1,7.3-3.29,6.9-1-2.7-9-6.6-8.51C1009.21,115.45,1009.73,118.64,1008.1,122.68Zm-2.5,133.7c-1.43,4.66,6.31,3.17,9.1,3.21,5.51,1.32,15.94,2.71,20.4.59.1-8.6-7.5-1.4-10.5-5.3-2.71-.54-4.34-3.58-7.9-2.59.61,1.27-2.15.49-2.6.7.61,1.26-2.15.49-2.6.7.61,1.26-2.15.49-2.6.7.5,1.18-1.5.53-2,.69A7.57,7.57,0,0,1,1005.6,256.38Zm42.7,2.6c2-.5,2.3-1.2,2.6-3.3C1048.8,256.18,1048.5,256.48,1048.3,259ZM1700,399.08a11,11,0,0,0-3.3,6.6c-1-.28-.63.72-.7,1.31-1.9-.31-.2,4.19-2.1,3.89v2c-1.19-.48-.54,1.5-.7,2-1.19-.5-.54,1.49-.7,2-1.63-.53.23,2.52-1.4,2,.48,3.28-1.53,5-1.1,7.9-1.27-.61-.5,2.16-.7,2.61-1.18-.51-.54,1.5-.7,2-3.73,2.83-1.9,21.77,2.6,7.9-.09-5.37,1.51-12,2.1-17.11,1.9.3.2-4.2,2.1-3.9.08-.56-.33-1.73.7-1.39v-2c1-3.31,7.67-12.15,4.6-15.8C1700.94,398.13,1699.75,398.08,1700,399.08Zm1.3-22.3c-.7,1.7-.7,4.6-.7,7.2C1702.7,383.38,1703.2,378.08,1701.3,376.78Zm-13.2,199.5c2.73-2.93.08-11-.71-4.6-1.38-.78-.43,3.68-.68,3.91C1687.85,575.33,1687,576.57,1688.1,576.28Zm13.2-214.7a3.18,3.18,0,0,0,.7,4.6C1702.49,364.07,1704.43,362,1701.3,361.58ZM1529.5,4.88c.31,4.54-2,8.71-2.7,13.81,11.34.71,17,10.64,19.8,18.49-.3.76,1.45,6.61,2.7,6.51,0,2.48,3.56,3.33,3.3,5.89,2.84,1.36,1.86,5.51,4.6,6.6,0,2,1.51,2.36,1.4,3.9,1-.24.62.68.7,1.31.86.39,1.91,2.44,2,3.89a6.41,6.41,0,0,1,2.7,4c2.92,2.09,7.74,5.06,7.3,9.8,1.52,15.54-5,32.78-13.1,46,13.88-6.71,10.93,7.11,15.9,12.5.13.28-.46,2.64.7,2,0,.37-.28,1.77.7,1.3-.2,1.2.3,1.5,1.3,2,.37,3,5,5.15,6,7.21,0,1.56-.47,13.66,1.4,12.79.18,2.17,3.27,6.66,6.6,4.61-1.88-29.21-25-35.6-14.4-66.51,1.18.49.55-1.49.7-2,1.63.53-.23-2.52,1.4-2,.09-4.52,3.49-13.09-.1-16.4a4,4,0,0,0-2-3.4c.11-3-3.76-2.4-4-5.3-6.23-10-12.26-22.56-19.4-33.49-.4-15.31-20.6-19.51-14.6-37.51C1525,.47,1533.83,1.26,1529.5,4.88Zm154.7,137.6c-.82,10.46-4.27,19.39-5.4,32.7,10.66-3.68,3.45-20.39,8.7-26.29,2-.17,1.9-10.39-.6-11.21-.26-.37.67-4.57-.7-3.79v-4.61c2.3-.6-.3-7.3,2.1-7.9.15-.42-.48-2.54.7-2,.11-4.76,7.09-12.13-2.6-12.51-.26,7.25-4.11,14.34-4.6,22.4,1.6.1,5.4,12.8,2.4,13.2ZM1355.1,39.68c-2,1.43-3.44,4.56-4,6.6-1.9-.2-.8,4.1-2.7,3.9-.15.53.48,2.48-.7,2-.06.59.29,1.61-.7,1.3-.15.51.48,2.5-.7,2v1.4c-1.6-.4-.4,3-2.1,2.6-.51,3.81-7.35,17.2,1.6,19.11,1.75-7.53,2.19-16.47,4.7-21,.16-.51-.48-2.48.7-2,.15-.51-.48-2.49.7-2C1353.87,50.52,1364.43,29.46,1355.1,39.68ZM186,694.08c-.17,1.16.15,1.47,1.3,1.3C187.47,694.23,187.15,693.92,186,694.08Zm-25,200.7c.8.4-.3.8.7.7C171.79,888.12,153.14,885.35,161,894.78Zm62.3-111.1c7.39,8.41,6,22.5,4.2,32.21-6.83,12.53,1.49,11.78,4.5,21,2.3-1.6-3.1-8.5,0-10.5.22-.49-.62-3.94.7-3.3-.49-6.47-1.67-13-2.1-18.4-2.8-1.4.4-7.8.6-9.2C229.09,786.55,231.62,767.69,223.3,783.68Zm6.2-20.5c2.28-.39,2.54-11.41,6.1-12.49.78-4.42-.67-11.82-3.9-15.81C233.7,745.78,227.4,755.28,229.5,763.18Zm-57.4-76.4c5.6-1.2.4-6.5-1.9-7.9C168.76,681.74,168.53,690.41,172.1,686.78Zm-11.8,126.4c-.17,1.16.15,1.47,1.3,1.3C161.77,813.33,161.45,813,160.3,813.18Zm6-105.3c.42-2-.87-2.85-1.4-4.6C160,703.18,163.4,708.68,166.3,707.88Zm27.6,25c1.5.1.6-1.2,0-1.3C192.8,732.58,192.1,735.38,193.9,732.88Zm72.4,86.9c7.7,10.3,6.2-.1,11.8-5.9-4.69,1.1-7.87,4.4-12.6,3.4-6.4-9.2-6.9-7.4-9.9,3.2C259.2,820.28,263.9,818.48,266.3,819.78Zm8.6,24.3c1.84,1.86,3.37-5.71,0-5.19C274.6,840.78,273.5,842.68,274.9,844.08Zm-2,15.8v1.3C274,861.32,273.45,860.36,272.9,859.88Zm-54.6,2.9c-3.78,4.53-7.08,9.89-8,16.4,2.9-.1,3.9-6.3,7.9-4.6,5.83,3.88-2.76,24.54,5.3,25.11.53-10,6.26-10.49,13.2-13.2.19-7-19.59,4.27-15.1-21.71,2-9.8,24.8-8.9,11.2-18.6C228.19,857.79,226.27,854.73,218.3,862.78Zm41.4-64c1.51-4.77-1.05-6-1.29-.69C259.56,797.81,258.66,799,259.7,798.78Zm.7-6v1.3C261.49,794.25,260.94,793.14,260.4,792.78Zm549-385.7c-5.69-3.12-10.7-.24-11.2,6.71C801.62,411.84,807.49,409.94,809.4,407.08Zm-43.6-95.5c-4,2.21-.33,11.42-1.9,16.5-1.5,0-.8,3.3-1.4,4.6,6.9-4.3,1-17.1,7.9-23.1,2.5-1.6,8.5-.9,7.9-4.6C769.69,295.58,770.09,305.28,765.8,311.58ZM156.4,884.28c-.5-1.8-.2-1.5-2-2C153.76,885,158.09,886.6,156.4,884.28Zm462.1-455.5c-19.64-8.78-4.56,2.58,3.2,6C630.28,432.67,625.23,427.29,618.5,428.78ZM629,202.28c-.4-2.4.4-5.6-2-5.3C627.6,198.68,626.5,202.68,629,202.28Zm7.2,221.2c4.6-1.9,4.9-8.1,5.9-13.1C638.1,412.08,637.5,419.08,636.2,423.48ZM262.4,880.38c18.92,6,3.63-2.48,7.2-9.8.73-3.8,3.4-5.47,3.3-9.3C265,872.69,243.17,868.22,262.4,880.38Zm313.9-485.2c1.17-1.65-.89-5.43-3.9-4.6C572.4,393.38,573.9,394.38,576.3,395.18ZM147.8,809.28c-1.36.6-1.14,3.91-3.3,4.7-2.36,2.19-4.09,9.34,0,5.11,3.9.19,5.7-5,8.6-7.21C154.3,809.88,148.2,804.28,147.8,809.28Zm4.6-106c-2-.42-3-1.24-2.6,1.31C150.85,704.42,153,705.22,152.4,703.28ZM544.6.88C571.05-3,575.36,27.44,581.9,14.79c-.06-4.33-1.8-9.17-.1-13.91-.06.5,22.1-1.19,13.9,1.31.55,1.64-2.54-.25-2,1.39-7.74-.62-3.84,10.5-6.6,14.91-2.52,1.89-7.2,4.61-7.2,7.89-3.23,2.89,3.14,7.3,3.2,9.9,11.27,8.18,6.11,16.19,3.1,25.71-2.88,2.49.9,10.47.7,12.5,5.53,12-7.18,25.3-2.6,38.89,4.54,8.47,13.71,13.38,19.8,19.1,7.49,3.8,13.66,14.8,21.6,16.4a8.44,8.44,0,0,0,2.7,4c.2.57-.58,1.56.7,1.29,1.54,5.39,8.5,6.88,11.8,9.9.75,0,2.35-.38,2,.7.7.08,3.07-.49,2.6.7,2.61-.42,3.69,1,6,.71-.57,1.24,2.12.51,2.6.7-.38,1.42,1.69,0,1.3,1.39,5.35.44,7.18,5.48,11.2,8.6,4.79,9.52,16,14.42,23.1,19.7,25.73,11,44.73,41.56,70.4,45.11-.62,1.21,2.16.53,2.6.69-.7,1.1,3.5,1.7,3.9,2,1.58,2.89,5.32,4,7.2,6,3.05.56,11.27,3.42,13.9-.59,3.71-.61,4.51-5.68,7.8-7.3,0-2.29,2.73-3.44,2.6-5.91.87.09.72-.56.7-1.3.87.09.72-.56.7-1.3,6.32-5.55,6.21-23.44,16.5-28.2,3.66-4.24,10.19-8.13,10.5-13.9,3.12.6.77-2,2.5-2v-2.6c1.37,1.38,1-13.14,0-11.79-.75-.4,1.15-8.14-.7-7.21-.55-.5.89-4-.7-3.3-.49-.53.79-3.18-.7-2.6-1.5-9.37,1.39-23.72-9.2-28.29-1.17.29-.51-.72-.7-1.31-1.34.72-.46-2.9-.7-3.3-1.43,1.12-.42-8.41-.7-8.6-1.31.62-.47-2.15-.7-2.6-1.27.51-.48-1.5-.7-2-1.16.33-.52-.74-.7-1.3-1.77-1.58-6.24-7.62-9.2-7.9-3.89-3.48-5.82-8.79-9.9-10.5-.4-1.4-1.5-1.4-2.7-1.3.2-.94-.65-.67-1.3-.7.44-1.15-1.46-.56-2-.7.44-1.15-1.46-.56-2-.7-1.09-2-5.71-2.61-5.9-6-1.68-.24-.76-2.1-2-2-.26-.38.44-1.74-.7-1.29-.37-.3.64-2.65-.7-2-.37-.29.63-2.65-.7-2,.74-5.29-10.08-3.38-8.7-9.9,11.79-4.17,1.08-19.53,1.9-26.4-1.22.57-.51-1.56-.7-2-1.22.58-.52-1.56-.7-2-1.07.49-.58-.85-.7-1.3-1.22.59-.52-1.56-.7-2-3.79-8-5.28-23.8-9.1-35.39h8.7c.05.84-.41,2.3.7,2v2c1.13-.33.57,1.29.7,1.91,1-.13.66.68.7,1.4,3.87,4.22,7.75,11.09,10,17.09-5.28,5.57,1.13,28.11,2.8,33.61.07.61-.49,3.24.7,2.69.06.61-.48,3.14.7,2.6,0,.61-.47,3.14.7,2.6-.08.8-.31,2.29.7,2v4.59c1.24-.58.51,2.14.7,2.61-1.46.37.14,8.33,1.4,7.89.29,4.48,7.27,4.47,8.6,7.3,21.1,15.46,21.14,19.59,32.9-6-1.47,5.72-2.88,9.79-2.7,15.1-2.37,2.55-6.74,6-6,11.1,1.21-.45.52,1.48.7,2,1-.25.6.67.7,1.3,1.44-.4,0,1.69,1.4,1.29.17.72-.37,1.51.7,1.3v2c1.33.23.87,7,3.9,6.6,2.28,3.74,10.15-12.75,11.2-3.89-2.43,2.46-1.45,7.64-2.7,10.59-1-.28-.64.71-.7,1.31-1.18-.48-.55,1.48-.7,2-2.6,1,.5,7.39.6,8.59.13,2.07-.64,19.36,1.4,18.41.2.42-.52,2.55.7,2,.24.36-.6,3.28.7,2.6.32.21-.74,5.56.7,4.6-.37,2.51.56,7.37.7,9.2,1-.38.62.78.7,1.31,2.3.29-.2,1.79,2.7,2-.11,1.8,4.95.22,4.6-1.29,2.5.59,2.6-3.91,5.2-3.31.26-1.67,2.08-.77,2-2,.54-.19,1.51.35,1.2-.71.39-.36,3.25.69,2.6-.7,12.86,3.07,16,.49,24.9-9.8,7.38-7.46.6-17.43,3.4-22.4,4.22-10.56,6.39-16.17,4.6-28.9-.2.4-1.5-1.6,0-1.3v-5.3c-1.33.73-.46-2.9-.7-3.3-1.16.58-.56-1.55-.7-2-1.1.3-1-1.3-1.4-2-5.4-3.86-15.18,4-17.1,9.3h-.7c.3,1.5-1.9,1.2-1.3,2.9-5.5,8.87-8.63-.54-4.4-5.2,2.56-6.45,13.74-7.43,11.2-17-.1-.8-3-4.8-.6-5.3v-2c1.6.3.4-3,2-2.6-.49-3.84,2-10.57.1-13.2,4.31-10.64-18.44-36.8-7.4-34.9,2.94,3,8,4.65,11.9,7.91v2c2.3.4-.1,6.8,2.1,7.2.18,3,.42,10.24,2.1,12.51.22.83-.53,2.29.7,2,.21.82-.52,2.29.7,2,.84,5.1-2,13.18.7,17.1v3.29c1.21-.39.52,1.43.7,2,1.9-.21.8,4.09,2.7,3.89C902.12,104.15,895,115,906.1,125c-11.16,9,9.66,14.6,14.9,14.9-.27,1.06,1,.92.7,0h2.6c3.9-3.63,9.63-5.65,16.4-6.79,4.1-2.51,10.8-6.71,14.5-2.71-6.83,4.61-17.39,6.83-24.3,9.4-3.54,4.4-12,4.37-10.6,11.81-10.7,1-7-11.71-14.6-12.51-11-2.49-11.73,9.45-11.2,16.5,2.83,19.16,11,50.12-1.4,65-1,35.11,44.28,33.51,69,34.9,2.68,8.31-15.79.57-19,6.71-3.46,12.17-4.92-.7-9.2-3.2-6.89-1-12.43,1.68-13.1,7.9-2-.21-.1,4.79-2.1,4.59-.25,0,.6,3.53-.7,2.6.32,3.5-1.09,7.62-.7,11.2-1.63-.54.23,2.54-1.4,2-1,7.1-6.52,12.93-2.5,20.4,2.84,3.23,6,10.45,11.2,12.51,3.5,2.89,5.6,9.69,10.6,9.19-.62,1.2,2.16.55,2.6.71,7-4.31,2.9,11.09,5.9,13.19.07.17-.42,2.8.7,2,.14.1-.54,3.53.7,2.6.19,0-.64,4.35.7,3.3v2.6c1.15-.66.57,1.63.7,2,1.9-.2.8,4.1,2.7,3.9,2,4,4.75,9.24,9.2,11.21-.4.61.89.73,1.3.59.4,2.3,1.7-.2,2,2.7-4.94,1.08-4.83-3.78-9.2-3.3-8.47-1.48-22,11.5-27.7,19.7.2,1.9-2.2,2.3-2,4.6-1.7-.4-.5,3-2.1,2.6-.17.64.56,3.12-.7,2.6V403c-1.38-.8-.44,3.55-.7,3.91-1.33-.72-.46,2.89-.7,3.3-1.33-.72-.46,2.89-.7,3.3-5.94,10.56,2.77,21,10.6,25,11.4,5.09,18.66,20.42,28.3,27,2.74,5.9,16.39,2.35,16.5,9.49-3,1.81-5.19,8.47-10.5,5.91-.66-.22-2.38.52-2-.71-.71-.11-1.51.34-1.3-.7-.7-.11-1.52.34-1.3-.7-.7-.1-1.52.33-1.3-.7-.63-.2-2.4.52-2-.7h-2c.47-1.19-1.48-.53-2-.7.2-1.4-2.3-1-3.3-1.4-3.28-3.31-4.5-6.91-8-9.8-1.1-9-16.2-7.8-19-1.3-4.21,5.53,5.25,12.47-.1,21.1-1.18-.5-.55,1.51-.7,2-1.7-.41-.5,3-2.1,2.59-.1.41.44,2.57-.7,2-1.48,2.67-.92,10.4-3.4,11.81-11.35,25.4,16.67,2.71,16.5,10.69-7.64-1.88-5.66,5.88-11.9,6.51-9.2-7.71-18.8,6.89-15.8,16.39,1.2,2.5,3.4,5.6-.6,7.3-1.68,4.22-5.9,7.38-7.2,12.11-1.19-.92-2.07,5.81-3.4,5.19-1.74,5.59,0,15-6,19,.13,2.3-2.71,3-2.6,5.29-6.85,7-3.28,20-2.1,28.9,6.8,13.3,6.9.9,11.1,19.7,5.28,4.24,9.52,12,14.5,15.11,1.7,2,5.45,3.77,5.9,6.59,10,9,15.64,25.83-.7,5.51-2.29-.77-2.31-5.77-4-5.91a8.92,8.92,0,0,0-7.3-8.6c.1-.77-.57-.8-1.3-.69v-.71c-1.9.5-1.5-1.8-3.3-1.3.27-1-1.34-.65-2-.7.11-.76-.58-.8-1.3-.69-1.54-4.13-15.39-7.15-11.2-12.6-.43-.19.76-3.47-.7-2.6-.34-.26.7-3.43-.7-2.6v-2c-2,.4-2.2-7.7-3.5-7.2-1-15-10.7-11.87-18.6-.69-14.67,3-15.41,21.49-25,28.3-2,3.5-6.45,3.45-8.6,7.29-26.19,19.15,3.21,26.85-19.2,28.3-9.8,7.21-17.7,18.8-26.3,28.31-39.58,7.53-7.2,29.6,10.5,36.29,2.1,4.1,11.4,2.3,12.5,6.5-6.49-3-15.31-3.1-19.8-6.59-9.83-5.08-10.56-.6-16.4,3.4,2.91-16-10-17-13.9-5.3-1.14-.2-.53.64-.7,1.3-1.65.71-1.45,4.42-4,5.19-.9,3-5.19,5.67-6,8.51-.14,4.47-3.88,11.43-6.1,15.09-6.91,6.76-16.83,10.09-17.8,18.5-1.07-.29-.58.72-.7,1.3-1.07-.29-.58.72-.7,1.3-1.9-.2-.8,4.1-2.7,3.9-.37.46.69,3.21-.7,2.6-2.76,17,8.76,21.47.7,24.4-1.2,1,.5,4.5-1.4,4.6-.46.15.84,5.6-.7,4.6-.4.21.75,4.16-.7,3.3,8.31,22.07-9.44,23.18,3.3,36.31.13-.26-.65,8.59.7,7.19.06,0-.51,4.34.7,3.3-.08.19-.19,1.9.7,1.3,0,.08-.36,2.81.7,2-.22,2.32,1.09.8.7,3.5,2.71,1.31,2.18,5.77,5.6,7.2,4.78,6.2-6.52,2.22-9.2,3.31,2.2-3.82-1.2-6.79-1.5-9.11-1.06.13-.59-.59-.7-1.3-1.06.13-.59-.59-.7-1.3-5-5-2.56-14-8.7-19.8-5.81-1.8-11.37-7.36-19-4.29.78-14.44-17.25-14.56-29.7-17.8-8.07-1.64-21.12-2.56-21.8,8.6-1.43.35-1.41,1.41-2,2.69-9.8.6-4.7-2.9-2-7.9,13.84-5.62-.46-18.1-7.9-13.29h-2c.2,1.9-4.1.8-3.9,2.7-.26-.12-1.84-.16-1.3.7-1.59-.07-1.86,1.38-3.9,1.4-4.47,4.28-12.72,6.26-17.2,11.3-11.66,6.6-31.85,20.74-19.8,37.41,1.22-.5.47.86.7,1.29,1.6-.7,1.1,4.6,2.7,3.9-.24,2,.85,2.89,1.1,4.8h-6.2c7.35-14.83-15.24-30.67-19.9-12.39-.73-.5-.82.85-.7,1.29-1.25,0-.58,2-2,2.6-.81,2.2-2.54,5.5-4,6.61v1.29c-.4-.12-1,.07-.8.6-3.7-.5-14.6,2.2-8-4.6,14.3-7.7,5.2-21.1-9.9-15.9v-.7c-2.1.6-1.8-2.6-3.9-2,.4-1.7-3-.5-2.6-2.1-3,.25-1.45-1.16-4.6-.69.63-1.74-3.23.33-2.6-1.41-5.58-.38-14.25-.77-17.7,0-3.14,1.36-10.07-.46-13.9.7.56,1.61-2.55-.22-2,1.39-7.08,2.52-22.19.83-25.1,12.6-12.07-6-16.63,10.17-5.1,9.61,2.86.4,3.7-2.33,4.7-5.31,4.48-.56,3,4.31,2,7.2.63,3-27.12.37-28.3,1.21,4.16-9.23-19.48-44-27.8-33.81-.08.41.43,2.65-.7,2-.08.41.43,2.66-.7,2-.08.41.43,2.66-.7,2-.08.41.43,2.66-.7,2-1.57,3.77-.21,9.61-.7,13.81-3.92,4-6.19,14.09-14.9,12,1.87-1,2.53-4.58,3.1-5.89,1.8.19.9-4,2.6-3.91v-2c1.6.4.6-2.6,1.8-2.6-.07-.72-.32-2.36.7-2-.17-.77-.11-1.49.7-1.3-.08-.71-.31-2.37.7-2-.08-.71-.31-2.37.7-2,.19-.86,1.11-11.63.7-13.8-.93.47-.6-4.3,1.3-3.29,18.54-10.3-.9-35.27-15.3-20.6-23.65-17.42-29.79,20.17-19,34.2-4.11,5.6-4.13,15.09-12.6,16.4-.9,1.19-1.6,1.19-1.3,2.59-1.4.4-1.4,1.5-1.3,2.7-1.06-.51-.59.88-.7,1.3-3,1.4,1.3,2.7-5.7,2.2-.24-4.52,1.73-6.55,2.1-11.4,3.92-3.61,15.54-29.75-1.6-23-3.86,3.23-4.39,7.61-9.2,9.21-11.28-7.23,31.88-14.11,23.7-34.21-.07-4.77-7.55-7.91-9.9-12.5a5.84,5.84,0,0,0-2.6-4c-4.49-11.52-20.17-17.38-17.1,1.31-5.29-.2-5.6-4.43-5.3-8.61-8.2-8.69,2.1-3.59,4.5-10.49s-1.84-15.76-4.9-19.71c-.5-.79-.1-2.89-1.4-2.59-.06-.52.3-1.66-.7-1.3.32-1.87-1-.74-.7-2.6-2.23-7.3-10.57-6-9.3-14.4-1.26.62-.5-2.17-.7-2.61-1.9.21-.8-4.09-2.7-3.89.32-1.84-1-.76-.7-2.6-1.6.1-1.4-2.7-3.3-2-.2-2-2.4-.2-3.3-2-1.75-1.44,1.48-15.15-2.7-16.5v-2c-1.6.7-1.1-4.6-2.7-3.9.5-1.9-1.8-1.5-1.3-3.3-1.7.4-.5-3-2.1-2.6v-2c-1.15.57-.56-1.56-.7-2-1.38.77-.43-3.53-.7-3.91-1.33.73-.46-2.9-.7-3.3-1.25.66-.51-2.17-.7-2.59-1.79-.33-3.36-14-8-13.9-5.64-3.69-5.07,7.59-6.7,9.09-.05.7.47,3.07-.7,2.61.11.77.16,1.49-.7,1.3v2c-1.42-.39,0,1.68-1.4,1.3,0,.71.36,2.37-.7,2v15.09a1,1,0,0,1,.7,1.3c-2.65,8.13-3.73,11.62-1.2,19.1,2.95,6.5,4.57,22.78,1.5,32.2-3.84-6.45,3.19-9.16-1.4-19.09-2.7-2.21.5-11-2.1-13.21v-2c-.89.42-.71-.79-.7-1.3-1.13.55-.58-1.53-.7-2-.89.42-.71-.8-.7-1.3-1.13.55-.58-1.53-.7-2-3.1-2,1.5-8.8,1.3-11.8v-9.9c-2.76-4.06-.79-10.65,1.4-14.4,2.27-4,6.64-17.68,2.6-19.79-.93,0-1.35.23-1.3-.7h-2c.39-1.43-1.69,0-1.3-1.4-6.78-5-4.66-8.24-15.8-8.59-.33-.44.49-1.72-.7-1.3-.1-2.07-1.28-5.09-4-5.91-10.8-4.34-8.24,15.62-13.9,18.4-10.05,17.59,15.72,56.26,1.3,38.21-1.37.79-.45-3.55-.7-3.91-1.29.61-.48-2.14-.7-2.6-7-10-16.3-8.64-25.1-.59,0-.66-.05-.77-.7-.71v-3.9c-6.08-6.11,2.85-10.92,1.3-16.4.4-3.3-7.7-4.2,2.7-10.5-.12,8.54,6.36,30.81,14.4,15.11,1.63,1.23.28-13.09.7-13.21,4.16-4.85,19.41-37.88.1-30.9-3.08,2.59-12,20.64-12.6,11.81,1.8.29.3-3.71,2.1-3.31-.6-2.1,2.6-1.8,2-3.9,8-6,18.35-13.22,10.3-22.3-.4-2.11-2.4-5.1-4.6-5.3-.23-2-2.82-.57-2.7-2-.63.2-2.4.22-2-.7-.62.21-2.4.21-2-.7-6.29-1.56-18.42-13-26.3-2.6-7.56,3.17-12,11.86-14.6,18.4.8,14.09-2.4,4.69-9.3,11.89-8.81-1.12-15.8,5.64-14.5,15.9C127,671,132,682.57,123,684.19c-6.33-2.71-7.27,11.19-9.3,13.19-1.4,4.34-3.19,12.31,1.3,17.1,15.6,7.48-3,6.35-1.5,18.41,1.34-.74.46,3,.7,3.4.86,4.6,8.31,5.9,9.3,9.19,1.41,1.94-5.3.62-6.7,4-4.41,9.41,3.7,23,7.3,30.8,1.1-.3,1,1.3,1.4,2-11.5-.4-8.3,13.5-8.5,22.3.3,9.1-6.7,22.9.6,29,4,8.6,7.7,5.9,14.4,2-5,15-11,8.68-3.3,26.4-8.59,5.12-2.89,21.29-3.9,28.9-.58,3.94,1.58,7.37,3.4,10-15.24,1.4-3.91-3.49-14.5-16.09,7-3.06,8.71-55.82-7.4-36.81-1.28-7.6-5.17-9.4-9.9-14.49,4.68,0,9.24-.83,9.9-4.6,5.66-10.68,4.29-20.61.6-30.3,5.06-3.63,5.47-27.26,2.7-32.3-8.48-5.88-8.57,8.34-14.3,6.5-9.66-16.73-17.39,12.75-27.6,15.09-8.5,9.7-1.9,12.5-12.5,9.8-35.25,30.12-7.41,21.65,15,31.1-7.39,4.2-12.19.89-18.5-.8,1-1.47-7-.38-7.2-.7.7-1.32-2.79-.46-3.2-.7-5.62-4-7.42,8.66-13.8,5.2-8.61,3.89-7.55,15.91,1.9,6.61a2.58,2.58,0,0,1,2.6-2.71c6.62,18.49-3.65,5.79-11.2,15.7-7.62,4.49-10.67,13.17-9.2,21.81-3.54,1.66-2.59,12.07-2.7,15.7,1.69-.17-.36,4,2,4,1.48,4.06,8,9-1.4,8,.63-3.46-.45-5.54-.4-8.7-.55-.06-.82.2-.7-.7-1.9.5-1.5-1.8-3.3-1.3.84-1.37-4.26-.44-4.6-.7C.09,883.35,8.08,882,9,877c-7.52-11.44,18-34-8.5-30.8-1.19-9,4-2.43,6.4-5.49,10.15-2.05,12.94-15.08,20.4-21.2,17.7-18-2.64-11.94,9.3-23.1,5.95,1.8,11-1.19,14.4-4.71,6.42-1.34,11.24-7.68,11.2-16.5,7.68.94,14.56-6.26,15.1-13.29-1.4.29-2.7-5-2-6.61,2-.6,1.4-4.9,4.7-3.9-.8,10.5,10.4,5.1,9.8-4-7.4-4-2.3-3.6,0-7.9,8.56-.23,12-29.9-.6-25,3.07-6.35,29.76-25.43,11.2-26.5H97.8c.22,1.24-.66.47-1.3.71-8.93,7.95-29.75,7.43-36.3,21.1-3.12,1.89-4.84,5.25-7.9,5.9-3.56,2.84-8.16,7.11-12.5,9.3-.5,2.29-3.5,1.09-4,3.29-3.3-.3-3.9,5.6-7.2,5.3a3,3,0,0,0-1.3,3.1c-4.74,15.66-4.58-6-26.8,14.3-2.06-9.87,7.89-10.44,13.1-16,10.3-.7,13.8-12.5,21.8-14.5-.38-1.48,1.69.07,1.3-1.4,1.93.31.68-1,2.6-.7,3.08-3.56,21.09-10.69,11.7-15.9-3.26-2-10.76,1.72-12.5,2.7-.34,0-2.68-.33-2,.7-.59-.2-1.64,0-1.3.9-8.34,2.36-17.41.56-27,.1-3.13.89-9.3,6.26-7.2,0,1.19.78,1.38-5.86-.5-5.59v-5.61c.59.22,1.52-.32,1.2.71,10.06.61,12.83-3.44,17.8,6,7.1.09,17.4,2.49,17.7-7.91-5.4-2.9-.8-8.1,4-9.2-.85,4.63-1.12,10.57,3.9,11.21-.52,1.6,2.52-.22,2,1.39,3.37.56,11.42-.59,13.8-.7-.2-2,4.8-.1,4.6-2.1h2c-.52-1.65,2.52.25,2-1.4h2c-.16-1.28.53-.41,1.2-.7-.4-1.7,3-.5,2.6-2.1h2c-.44-1.33,1.46-.43,2-.7-.59-1.34,2.13-.44,2.6-.7-.45-1.33,1.47-.43,2-.7-.2-1,1.94-.46,2-2,1.7-1.2,1.2.7,2-2h.7c1.9-5.7-6.2-6.4-5.9-11.2-2.21-6.93-1.06-5-6.6-9.19-3.48-2.49-14.2.93-14.5-6.7,8.1-16.35,4.15,12,17.8.69,4.8-5.8,13.1-11.9,7.3-19.7-2.2-12.5,2.3-9,10.5-15.7,2.06,3.83-.63,8.65-1.3,11.8-1.9-.2-.8,4.1-2.7,3.9-.08,2.52-1.08,5-.7,7.91-1.32-.31.39,2.54-1.2,2,.32,2.07-2.09,2.43-2,4.8-4.87,3.37-6.3,12-3.5,17.7,2.79,3.87,10.18,13.83,16.6,9.81,15.56-.44,17.51-10.26,11.8-23.21,3.4.6,2.2,5.7,4,7.9,10,6.82,14.89-4.57,21.7-7.9,1.62-3.22,6.8-3.87,7.2-7.19,1.69.32,1.42-5.51,1.4-7.21,1.4-.7,3.9-.56,4.2-2,6.24-1.45,9.25-8,15.1-10.61,6.67-7,15.5-12.89,15.2-21.7,7.51-24.31,3.06-44-17.8-16.49,1.09-15.67,22.46-12.09,24.6-26.3,7.67-9.69.22-15.25-11-9.2-3.75-.41-13.7.48-16.4.7.59,1.26-2.14.5-2.6.7.72,1.33-2.9.46-3.3.7.59,1.26-2.14.5-2.6.7.61,1.72-3.21-.33-2.6,1.39-4.47,1.08-5.34,5.7-8,8.6-6.77,1.36-3.85-3.61-1.2-6.6-1.41-13,6.55-3.19,12.5-6.6,6.21-6.5,29.41,4.62,30.3-12.6,18.37,6.54,23.72-12.3,29.7-24.9a102.45,102.45,0,0,0,15.9-27.7c3.07-3.58,6.86-7.53,8.5-11.89,1.41.42,0-1.72,1.4-1.31-.08-.32-.32-2.67.7-2v-2c2,.2.1-4.8,2.1-4.6v-2c1.06.58.63-1.55.7-2,1.06.58.63-1.55.7-2,7.12-12,4-25.46.5-35.59-1.31.61-.45-1.59-.7-2-1.9.3-.2-4.2-2.1-3.9v-1.3c-1.31.63-.45-1.58-.7-2-1.24.57-.46-.91-.7-1.29-1.31.62-.45-1.6-.7-2-8.38-7.79-7.07-24.16-5.4-34.8,2,.94-.61-7.53,1.4-6.6-.18-2,.41-14.2-1.4-14.4,0-6.42-7.6-10.25-13.2-6.69-.61.47-2.47-.72-2,.7-.67.31-1.59-.46-1.3.7-1.7,0-3.21.31-4,2-6.67,2.89-18,18.76-21.8,26.3-4.46,4.87-11.58,9-16.5,11.21.18-.27-2,0-2-.11.21,1.31-.66.42-1.3.71.2,2-4.8.09-4.6,2.09-.59.58-2.46-.78-2,.71h-2c.45,1.34-1.47.44-2,.71.45,1.33-1.47.43-2,.7.4,1.69-3,.49-2.6,2.09-1.8.94-6.46,1.58-7.9,4-3,.19-4.88,4.15-7.9,4.71-4.93,5.2-21.6,15.11-21.8,21.79-4.17,9.17-5-11.61-24.9,12.61-3.91,11.36,3.25,7.47-4.6,18.39-.83-1.07-2.38,4.55-2.1,4.6-1.15-.41-.57,1.45-.7,2-1.62-.52.22,2.51-1.4,2,.32,2.3-1.08,3.94-.7,6.3-1.15-.42-.57,1.45-.7,2-1.43-.39,0,1.69-1.4,1.29-.24,3.83-4.87,9.62-4.7,1.4,1.29.65.48-2.17.7-2.6,1.9.2.8-4.1,2.7-3.9v-2c1.73.63-.33-3.22,1.4-2.6-.34-2.67,1-5.11.7-7.8,1.34.73.46-2.9.7-3.3,3.13-1.8.31-6.81-1.3-8-7.17.43-11.38,10.69-18.4,13.2-5.09,2.95-8.07,9.22-11.3,14.6-4.52,7.65-4.35,16.17,2.5,23-7.77-2.38-14.43,9-19,14.5-5.86,5.61-12.92,11.06-17.2,17.1.17.5.25,2.54-.7,2,.24.46.07,1.66-.6,1.3.13.44.34,3.27-.7,2.6-1.69,4.69-.38,11.3-1.2,16.41-4.12-15.81-5.72-15.85-16.5-3.11.25-1.77-.23-9.76.5-10.5,1.1.15.57-.6.7-1.3,1.32.53.46-2.08.7-2.6,3.35-3.35-7.14-15.7,1.4-17.09C1.22,540.44,15,532.46,22.8,523c8-8.67,21.22-19.33,19-31.59-9.3-2.81-.8-4,.7-9.21-3.86-8.69,27.23-9.45,3.9-29.6-13.8-8.4-19.2,14.9-21.7,1.3-1.1-.9-1.2-1.6-2.6-1.3v-.7c-1.24-.46-3.84.54-5.2-.7,4.91-17.43,10.84,11.07,21-6.1,2.94-12.17,16.41,21.42,28.9,10.4,9.32-4.87,10.11-15.4,21.7-15.9,4.84-5.33,18.78-9.09,21.1-17,2.9-1.31-.7-4,4.6-3.91,1.9,2,5.2,1,7.3.6,4.43-3.24,10-7.58,15.3-10.7,5.7-7.55,13.48-10.7,21-14,.38-.24,1.75.41,1.3-.71.29-.33,2.65.62,2-.7h1.3c-.3-1.8,3.7-.3,3.3-2.1,1.54-.2,4.28-2,5.2-2,.1-2,4.3-.9,4.6-3.3,8.78-3,13-13.67,20.4-19.7,5.23-11,15.07-17.63,7.4-31.59,4.4,3,4.1,12.39,13.2,12.49,26.2-9.06,20.67-30.25,18.5-53.6.22-5.9,3.61-20.24-5.9-20.4-.95-1.24-9-.49-9.9.7-.73.47-3-.77-2.6.71-.72.46-3-.78-2.6.7h-3.3c.71,1.34-2.9.46-3.3.71-31.22,0-19.4,30.67-9.8,50.8-12-2.15-11.31-4.63-10.6-17.81-1.36.78-.45-3.52-.7-3.9-2.78-2.36-5.57-8-3.3-12.5,3.5-19.33-21.3-35.09-32.9-19-5.13,5-13.18,10.25-15.2,16.51-3.79,1.56-2.15,14.61-6.1,11.8,2.37-34.86-22.1,4.07-31.6,11.89-.5,1.2-.4,3-2,3.3-.38,1.7-1.66,5.15-2.7,5.21v1.29c-1.4-.6-1.1,4.6-2.6,3.9,0,.67.39,2.38-.7,2,.06.71.21,1.52-.7,1.3-.3,1-1,12.1-.7,14.41,2,6.5-.76,16.82.7,25-6.5-5-10.2-.9-11.2-4.6,4.67-7,9-16.58,6.6-25.7-3.77-4.57-7.1-7.52,0-11.8,5.41-16.92,20.65-24.57,25.6-40.69-5.77-10.09-25.77-.54-32.3,2-.31.51-2.63-.73-2,.71-1.75-.31-2.25.9-4,.59-.22,1.48-3.5,1.42-4.6,1.71.54,1.25-1.54.48-2,.7.42,1.13-.8.53-1.3.7-18.64,8.82-49.58.45-62.8,25.09-4-21.35,18.09-15.89,4.5-38.1,7.2,2.65,6.71,12.85,13.9,13.61,10.31,2.77,25.37-4.28,35.5-3.9-.59-1.28,2.14-.5,2.6-.71-.24-1,.68-.6,1.3-.7-.46-1.2,1.47-.52,2-.7-.25-1,.68-.6,1.3-.7-.4-1.7,3-.5,2.6-2.1.64-.24,2.39.55,2-.7.69-.13,1.53.36,1.3-.7h2.6c-.6-1.27,2.14-.49,2.6-.7-.2-2,4.8-.1,4.6-2.1.57-.21,2.44.53,2-.7.56-.21,2.45.53,2-.7.55-.21,2.46.53,2-.7.61-.11,1.58.34,1.3-.7.54-.2,2.47.52,2-.7,17.24-4.2,24.51-25.8,32.9-40.89,1.9.59,1-2.31,2.5-2v5.9c-1.8-.3-.3,3.7-2.1,3.3v1.3c-.75,0-2.81,3.07-2.7,4a6.21,6.21,0,0,0-2,3.9c-21,21.32-5.79,27.49,16.2,20.41,8.1-6,18.63-13.45,23.7-22.3,6.35-8.32,22.76-48.83-2.5-46-18.6,3-17.2-2.1-28.9,12.6,3.84-20.45-5.16-16.21-4.1-32.7,6.67,21.09,26.38,21.31,43.4,11.11,4.41-15.55,1.25-38.14,3.3-54,.8-6.9,10.5-6.5,12.6-12.5,3.6-2.8-1.9-14,2-17.1.29-.37,2.75-7.6,4.1-7.8v-2c1,.3.65-.71.7-1.3,1.17.49.55-1.49.7-2,2.1-2.1,1.1-8.3,2-11.8,1.62-2.84,3.91-11.55.6-13.8-.4-2.41-3.29-5.34-2.7-8.5-.3,0-1.5-1.5,0-1.3-.23-6.76,8.4-26.86,2-31.5.78-5.44-9.56-11-7.3-15.79.11-.11-.45-2.79.7-2,.1-.1-.45-2.79.7-2,1.2-13.08-.5-12.32,13.2-12-8.28,6-1.15,19.3-1.2,25.8,1.7-.4.5,3,2.1,2.6.21.53-.39,1.64.6,1.3v2c2.16,2,3.69,6.82,4.7,9.1,7.1,6.26-7.54,8.37-5.3,30.31,1.95-.69,4.71,12,1.9,13.79,0,.46.38,2.61-.7,2,0,.46.38,2.61-.7,2-.09.41.51,3.32-.7,2.6-.23.3.75,5.55-.7,4.6-.15.36.62,4.13-.7,3.3,0,.46.38,2.61-.7,2v2c-1.7-.4-.5,3-2.1,2.6,0,.68.07,1.17-.7,1v1.3c-1-.45-.67,1.48-.7,2-9,12,5.82,20.78-11.3,28.39-11.45,4.94-5,21.42-5.4,30.2,2.47,10.72-2.25,25.75-.6,36.2,8.73,15.24-18.35,44.71,1.5,53.31,13.43,13.94,21.71,10.18,37.4,4.59.23-.55,9.69,1.1,8.6-.69h3.9c-.34-1.3,1.39-.45,2-.7.95-1.27,4-1.33,4.8-4a2.25,2.25,0,0,0,2.6-2.6c1-1,3-1.5,2.6-3.3a26.84,26.84,0,0,0,7.3-11.19c1.47.37-.06-1.69,1.4-1.31-.31-1.93,1-.67.7-2.6,2.31-2,3-6.67,5.9-8.6,9.64-11.31,21.18-29.71,34.1-38.8,2.54-3.56,6.34-6.47,7.3-10.5,1.7.4.5-3,2.1-2.6.53-.66-.76-2.37.7-2,.41-.7-.55-1.51.7-1.3v-2.6c1.64.53-.24-2.52,1.4-2,.58-.57-.84-3.12.7-2.6.4-.67-.54-1.54.7-1.3v-2c1.26.48.49-1.48.7-2,3.35-4.41-.4-16.47,5.2-21.1,8.87-12.63,7.09-35.78,23.2-44,19.13-11.73-7.69-17.32-8.6-28.9-1.6.39-1.7-11.21,0-11.21,1.3-7.6-3.6-15-2-23.7,6.08-10.51-1.57-14.21-6.6-21.69C298.78-7.88,368.86,4.14,373.1.88c6.47,5-10.61,24.76,6.4,18.51,2.1,0,4-.51,3.9,2.59-3.81,2.59-4.32,11.93-7.4,11.91-5.33-.32-11.44-3.5-9.9,7.2,1.44-.38,0,1.68,1.4,1.29-.08,2.22,4.56,7.45,0,9.2-12.79,16.43,14.23,9.74,10,27,.54,4,5.25,4.4,5.2,9.9-13.4,20.89,4.88,31.08,22.9,36.4h2c-.53,1.21,1.53.53,2,.7-.39,1,.79.61,1.3.7-.11,1.2,1.88.36,2,2,5.35,1,6.63,7.26,10.6,10.5.94,4.49,8.19,6.56,8.5,11.2,1.42-.41,0,1.7,1.4,1.29-.27,3.6,4.32,4.73,4.6,7.8,1.06,1.73,4.4,1.13,3.9,3.9,8.69,4.93.91,16.87,5.3,23,5.2,8.68,12.38,19,22.6,23.5,2.42,0,.33,1.07,3.3.7-.6,1.12,1.57.59,2,.7-.49.82.95.59,1.3.6-.93,1.08,5.67,2.1,5.2,3.4.09.08,3.42-.46,2.6.6.35,0,1,0,.7-.7h2.6c.2-.6,4-4.3,3.9-1.9,1,8,10.57,27.64,19.8,22.81,4-1.61,7.3-6.41,10.6-9.91,6.17-2.29,12.31-2.27,15.2-8.5,10.61,9.89,18.73-3.22,27.1-8,3.54-2.88,9.35-6.08,9.9-10.6,1.38.4,0-1.69,1.4-1.3-.24-.69,0-1.52.7-1.3-.24-.69,0-1.53.7-1.3,10.73-19.44,1.89-10.72,3.4-28.2,4.22-9,5.25-19.77,4.9-32.3-1.1.7-1.7-3.5-2-3.9-2.18-2-4.33-3-5.9-5.29-1.6.59-1.5-1.41-2.7-1.31-.34-.47.47-1.72-.7-1.29-.34-.48.47-1.73-.7-1.3v-2.61c-4.61-20.12,9.13-32.24,1.9-55.89.88-3.18,3.88-11.8,2-15.8-1.49.42.07-1.73-1.4-1.31.6-2.8-4.5-3.1-3.9-5.9-2-1.23-3.23-2.73-3.3-4.6-1.39.61-.39-1.58-.7-2-1.37.67-.43-2.18-.7-2.6C567,5.91,545.55,21.23,544.6.88ZM109.8,744.78c-1.6-.2-.8-3.4-2.7-4.6-3.95-.38-4.81,1.19-5.3,3.3-2.51,1.47-2.18,6.12-3.3,7.9-1.16-.58-2,5.79-3.3,5.21C95.13,774.75,114.57,754.86,109.8,744.78Zm263.9-614.6c-2.33,3-7.29,4.25-7.4,7.8-1.62-.51.22,2.52-1.4,2,.39,2.74-1.08,5.08-.7,7.8-2.33,2-4.93,16.29-1.4,20.4.53.69-.81,3,.7,2.61.47.71-.71,2.33.7,2,.47.7-.71,2.34.7,2v2c1.13-.23.54.68.7,1.31,15.23,22.6-16.72,18.48,10.5,53.89,1.75,6.12,8.25,11.06,7.4,17.8-4.61,9.69.14,25.55.5,35-.71,13.84-.16,18.16,7.3,28.19,5.7,10,17.42,7.89,20.5-1.4,3.87-5.57,9.76-9.75,14.4-14.49,11.34-5.76,42.13,10.18,36.3-15.2,4.94,3.95,9.18,23.79,21,15.09,2.92-8.42,11.62-15.51,15.2-23-.26-.84-.06-1.41.7-1.3v-2c1.62.52-.22-2.52,1.4-2-.18-5.05,7.21-18.18,1.3-23.11-.61-3.8-6.52-5.91-7.2-9.79-3.43-2.69-4.26-8.73-9.1-10-.85-2.31-6.14-2.66-6.6-4.6-.81-.1-1.44.33-1.3-.69-.76-.2-2.31.5-2-.7-10.61-2.32-9.22,9-13.9,13.8-.23.48.42,1.67-.7,1.29v2c-1.07-.36-.58.76-.7,1.3-1.4-.2-1,2.3-1.4,3.3-4,5-1.36-1-2.1-3.31,1.15.47.56-1.48.7-2,.94.27.68-.69.7-1.3,2.2-.1,0-5.8,2.1-5.9-.32-2.32-1.07-4.33-.7-6.6,3.94-6-3.08-13.9-7.2-17.19-4.71-7.38-9.28-15.84-17.2-21.11,6.4-19.49-2.54-18.42-9.9-34.09-3.3-1.83-6-5.29-8.6-7.91-.5-.8-.1-2.9-1.4-2.6-.5-.8-.1-2.9-1.4-2.6a5.78,5.78,0,0,1-1.3-2.6c-.8-.5-2.3-.2-2-1.4a1.59,1.59,0,0,1-2-1.3c-1-.6-3.5,0-3.3-1.4-.35.06-3.32.4-2.6-.69-.34.06-3.33.39-2.6-.7-.33.06-3.33.38-2.6-.7C388.42,126.06,383.2,118.23,373.7,130.18Zm101.8,247.7c-2.36-3.86-2.92-10.72-8-12.5.4-1.7-3-.5-2.6-2.1-2.23-.1-3-1.33-4.6-1.4-2.35-4.88-8.32-9.51-13.1-9.4,0-1.88-8.76-1.51-9.2-3.39-14.81-5.35-15.66,13.09-19.1,2.7-1.4.19-1-2.31-1.4-3.31-1.44-1.22-4.38-3.6-5.3-5.29-4.45-1.4-7.62-5.12-11.8-5.41-6.72-5.3-15,5.89-19.8,9.3-1.85-.31-.75,1-2.6.7.37,1.11-.77.56-1.3.71.38,1.1-.78.55-1.3.7v.69c-1.9-.5-1.5,1.8-3.3,1.3a19.16,19.16,0,0,1-4.6,5.31c0,1.73-2.14,4.09-2,5.19-1.6-.7-1.1,4.6-2.7,3.9.4,2.66-.94,1.35-.7,3.3-1.14-.45-.58,1.48-.7,2-4,3.5-2.84,14.26-5.6,19v2.59c-1.13-.48-.58,1.5-.7,2-3.8,4.69-.46,15.62-2.1,22.39-.84,2.12-5.22,5.78-6,8.6-1.6-.7-1.1,4.6-2.7,3.9.46,1.95-5.85,16.36-2.7,18.4.5.28-.73,2.66.7,2,.39,1.82,1.82,4,3.3,5.91-7.43,6.39-20,31.26-.7,31.6,14-6.71,7.4-13.51,15.1-15.21,2.56,1.88,15,4.19,17.1,1.2.55-.66,4.56,1,3.9-.7.47-.73,6.1,1.06,5.3-.7,3,.38,4.78-1.08,7.8-1.4-.4-1.7,3-.5,2.6-2.1.52-.54,3.16.82,2.6-.7.27-.78,8.93,1.14,7.9-.7,14.62-4.6,25.25,10.81,41.8-2.7,9.75-2.08,17-4.94,21.6-14,5.28-7.4,10.29-14.27,15.8-22.5,1.65-5.47,7.3-8.7,7.3-14.5,4.79-8.06-9.87-31.28-18.2-35.4Zm-10.2-77c-15.24-2.33-38.23-4.22-46.1,10.5-3.33,6.68-14.69,11.51-6.5,19.11,2.46,0,3.33,3.45,5.9,3.29.4,2.7,9.2,2.2,9.8,4.1,2-.22,3.74,1,5.9.6-.6,1.27,2.14.51,2.6.71-.48,1.17,1.49.54,2,.7-.58,1.12,2.24.4,2.6.6.56,1.52,7,1.6,8.5,2-.62,1.72,3.21-.33,2.6,1.39h2c-.8,1.7,4.6,1.2,3.9,2.8,2.24.15,6.39,1.17,7-2.6,2-.21.55-2.82,2-2.7,0-.62-.24-1.57.7-1.29.07-.56-.42-2.46.7-2,.06-.55-.42-2.47.7-2,.1-.49-.49-3.19.7-2.6C470.44,322.51,480.72,302,465.3,300.88Zm-124-228c17.17,13.06-.09,22.23,2,38.7-.13,14.48,13.35,20.06,23,11,6.4-1.7,3.6-12.8,6-16.4a98.61,98.61,0,0,0,.7-14.49c1.42.87.41-4.29.7-4.61-1-.71-2-2.92-4-3.89-3.9-16.09.35-9.41-11.2-23-2.66-1.19,0-8.42-1.4-9.21-7.9-12.08,5-16.83,4.1-28.4-3.74-6.11-4.69-16.51-15.8-13.79-1.27,3.15-8.9,2.7-11.2,1.89-10.6-8.1-.9,7.1,0,11.9.22,8.24-3.92,12.9-2.7,20.4C335.1,52.68,327.7,68.28,341.3,72.88Zm-37.4,185.4c-1.63.25-.8,2.09-2,2,.07.46.2,1.68-.7,1.29v2c-1.8-.3-.3,3.7-2.1,3.3-.3,3.14-3.71,6.59-4.7,9.9-2.69,1.87-2.25,5.09-4.6,7.2-.34,2.55-3.11,4-2.7,6.6-1.42-.41,0,1.72-1.4,1.3-1,4.78,1.88,8.56,3.3,11.7,4.2,4.52,6.62,11.13,10.6,15.5,6.13,3.55,15.16,6.22,14.6,16.4,7.63,13.84,20.11,1.84,27.7-3.4-.3-1.8,3.7-.3,3.3-2.1h2c5.27-3.06,4.83-2.89,7.9-7.9.36-14.67,3.68-13.87,3.4-.59v4.59c3,.44,1.14,3.92,4.7,8,2.65.91,10,5.39,13.1,2.6,6-6,10.34-15.69,4.6-23.2-3.23-2.39-4.16-7.43-6.7-9.9-.36-.83.63-2.25-.7-2-.41-.78.72-3-.7-2.6-.48-.71.84-4.43-.7-3.9-.59-.6,1-8-.7-7.2,1.6-11.5-6.6-22.7-3.3-35.5,1.7-6.2-2.3-17-5.3-18.4-14.4-.4-1.2,23.6-6,30.3-.21,8.09-.56,16,.6,24.3-.7-.08-.73.06-.7-.7-1.5.4-.6-2.4-2.1-2-.17-.79.37-1.44-.7-1.3v-3.9c-1.4.89-.42-4.28-.7-4.6-1.28.6-.49-2.13-.7-2.6-1.63.53.23-2.52-1.4-2-3.4-6.4,3.26-14.82-.1-19.7v-2.6c-1.7.4-.5-3-2.1-2.6v-9.2c2.4-.8-.2-7.8,2.1-8.6.07-.46-.42-2.52.7-2v-2c3.78-4.17-2.76-13.48-.6-16.4v-4.6c1.17.53.55-1.52.7-2,1.17.53.55-1.52.7-2,1.05.51.45-1.61.6-2,1.3.3,1-1.7,1.4-2.6,2.3.6,1.6-2.4,2.1-3.9,3.06-1.13-3.09-16.17-4.1-15.8v-2c-1,.44-.6-.82-.7-1.3-1.21.56-.53-1.54-.7-2-7.25-6.45,6.14-29.1-4.7-31,.28-.8-.71-.77-1.3-.69.4-1.42-1.7,0-1.3-1.41-6.32-.33-15-19.56-18.3-7.2-1.09-.23-.59,1-.7,1.61-2.1.09-.6,5.79-2.7,5.89v2c-1-.11-.65.59-.7,1.31-1.9-.31-.2,4.19-2.1,3.89,0,1,.25,1.31-.7,1.31-.16.69.55,3.07-.7,2.6-.38.48.93,12.74-.7,11.8-.12,4.18-4.89,5.41-5.3,9.19-1.63-.51.23,2.52-1.4,2-.08.79.48,3-.7,2.61-.26.49.75,6.1-.7,5.3-.12.68.58,4.45-.7,3.9-.41,5.54-1.73,18.57.7,23,1.21-.46.52,1.48.7,2,1.05-.26.6.68.7,1.3,1.73-.62-.33,3.21,1.4,2.59-.2.39.7,8.13-.7,7.21-.12,2.34.56,15.35-1.4,15.1C309.13,242.05,308.14,252,303.9,258.28Zm-58,8.9c2.31,15.33-5.19,51.75,15.2,36,.66-.21,1.55.41,1.3-.7.65-.21,1.55.41,1.3-.7h2c-.4-1.7,3-.5,2.6-2.1,6-1,10.36-6.45,13.2-10.5-1-5.33,5.8-7.2,6.6-11.9,1.9.3.2-4.2,2.1-3.9.11-.51-.45-2.48.7-2,0-.58-.27-1.62.7-1.3v-2c1,.32.65-.73.7-1.3,1.9.3.2-4.2,2.1-3.9,0-.53-.26-1.63.7-1.29v-2c1.7.4.5-3,2.1-2.6-.5-1.9,1.8-1.5,1.3-3.3,6.21-5.13,1.44-16.09,4.7-20.3,2.46-28.12-1.65-44.4-24.3-15.29C269.76,235.17,250.18,244.61,245.9,267.18Zm3.9,151.2c.26.43-.44,1.72.7,1.3-.3,1.76.9,2.25.6,4,1.73-.61-.33,3.22,1.4,2.6.4.15-.67,3.34.6,2.6.4.24-.71,3.37.7,2.6.39.22-.71,3.38.7,2.6-.24,1.66.64,3.08.5,4.6,1.07-.41.58.81.7,1.3,1.07-.41.58.81.7,1.3,1.81,1.69,6.57,3.59,6.6,6.3-10.2,2.1-20.6,40.5,0,27.6h2c-.4-1.7,3-.5,2.6-2.1,3-.62,6.2-3,7.9-4.59a20.72,20.72,0,0,0,16.7-15.3c15.82,21.74,50.32-12.08,40.7-30.41.9-.84-7.69-8.1-3.3-5.3,17.54,4.82,13.65-17.19,15.2-27.6,1.24.61.52-2.14.7-2.6,1.24.61.52-2.14.7-2.6,2.2-2.54.39-10.4,2.1-13.09,2.31-.8,2.11-10.75,4.2-10.51-.33-1.3,0-2.44,1.6-2,14.29-19.22,6.2-33.25-16.6-18.41-8.2,7.6-18.8,3.6-24.5,15.8-.17.71.37,1.52-.7,1.3v2c-.86-.6-2.37,4.1-2.1,4.6-1.21-.47-.53,1.49-.7,2-1.21-.48-.53,1.48-.7,2-1.2-.48-.53,1.48-.7,2-1.28-.61-.49,2.14-.7,2.6-1.2-.48-.53,1.48-.7,2-1.28-.61-.49,2.14-.7,2.6-6.68,13.84-.13-15,2-17.1-.34-2,2.06-2.49,2-4.6,1.43.41,0-1.72,1.4-1.31.51-5.76,5.21-13.45,1.2-19.09-1.44.41,0-1.72-1.4-1.3-.85-2.86-2.09-3.9-3.9-6.61-2.37-.05-3.37-2.73-5.9-2.6.29-.87-.71-.72-1.3-.69.3-1.11-1.3-1-2-1.41-3-3.23-8.67-5-9.3-10.4-1.44.43,0-1.71-1.4-1.29-.25-3.33-4.33-7.11-7.2-7.21-7.22-2.7-19.13,5.63-23.8,9.1-9.77,3.22-4.93,20-11.9,25-.5.8-.1,2.9-1.4,2.6,0,.69.39,3-.7,2.61,6.54,19.33-.15,36.41-1.41,55.19,1.35-.71.47,2.91.71,3.31,1.24-.51.5,1.5.7,2,1.24-.52.5,1.51.7,2,1.9-.21.8,4.09,2.7,3.89-.32,1.86,1,.75.7,2.6,1.09-.36.57.77.7,1.31,1.7-.41.3,3,1.9,2.79C249.47,416.74,248.46,419,249.8,418.38Zm-27.2,203.8c9.12-14,23.32-31.36,29.2-46.19,2.7-6.81,13.11-14.24,15.1-21.6,1.44.39,0-1.71,1.4-1.3-.32-1.89,1-.72.7-2.6,1.3.3,1-1.7,1.4-2.6,1-.7,2.4-1.1,2-2.6,2-1.63,4.09-3.57,4.6-5.9,2.7-3,3.48-8.69,9.2-9.2-.35-1,.76-.64,1.3-.7v-.7c1.9.5,1.5-1.8,3.3-1.3,6.2-6.52,13.08-11.42,19.9-15.9,7.59-2.74,10.89-11.78,13.3-17.7.88.38.72-.79.7-1.31.88.4.72-.78.7-1.3.88.4.72-.78.7-1.3,5.27-4.09,1.2-20.09,5.5-27-.17-.16-.25-2.75.7-2,0-2.92-.87-5.32-5.3-5.21v.7c-1.56-.48-3.91,1.41-4,2-1.9-.2-2.3,2.2-4.6,2,.4,1.7-3,.5-2.6,2.1h-2c.4,1.7-3,.5-2.6,2.1-4.33,3-12.3-3.4-16.5.1-1.68.35-4.13,1.87-5.2,2-.2,2.19-5.7,1.19-5.9,3.39-.66.36-1.55-.5-1.3.71-1.19-.05-2.27.27-3.3.3-3.26,2.71-8.47,6.14-13.8,7.5-6.38,8-12.77,2.2-18.5,7.39a16.11,16.11,0,0,0-8.6,8.5c-1.6-.7-1.1,4.6-2.7,3.9,0,.68.38,2.38-.7,2v2c-.94-.25-.68.69-.7,1.31-1.36.63-2.65,3.68-3.3,5.89-1.82,2.52-3.74,5.18-4.6,7.9-7.54,6.55-10.58,20-14.1,28.4-2.65,2.14-4.48,8.72-2.2,11.8-13.7,10.6-13.9,11.8-13.2,30.9-3.45,6-10.95,24.09-2,29.6C203.72,621.12,215.54,634.2,222.6,622.18Zm135.3,187.4c-2.95-9-6.78-1.13-11.3-5.19.27-6.35-1.4-4.09-3.3-7.21-4-.3-6.2,3.6-7.2,7.9,5,4.1.1,5.8,0,11.9C346.05,836.05,358.23,832.83,357.9,809.58Zm44,20.2c10.28-9.37-1-10.62-1.9-18.39h2c5.3,13.8,16.8,7.78,23.7,0,6.06-9,15.48-19.31,13.8-32.9,9.56,2.49,12.91,8.94,21.7,1.2,2.57-.41,4.61-3.8,6.6-5.19,5.68-1.17,8.35-6.15,11.8-10,1.8-10,14.25-8.61,20.3-10.69,9.69-5.13,26.82-20.65,2.8-21.81,8.7-2.29,20.33-.05,27.6-4.2,4.5-2.6,13.9-.5,17.1-7.3,1.4-3.2-1.3-5.3,3.3-5.9,5.5,5,17.8.6,16.4-7.3,4.67,1.83,11.49,7.64,17.1,3.91,9.58.72,24.52-22.06,28.3-28.2,1,.37.48-1.52.6-2,1.41-1,2.53-6.47,3.3-7.79,4.06-1.59,2.85-8.9,6.6-9.2.4,2,4.2-.11,5.3,0,.5-.8.3-2.3,1.4-2,0-.68-.35-2.41.7-2-.74-6.27-.33-14.82-2.1-19.1-1.31-9.44-.62-31.09-13.1-31,0-1.16,0-.52-.7-.7v-5.3c6.3-3-3.1-16.2-5-23,11.13-3.33,4.57-43.57,1.8-49.4-1.26.48-.48-1.5-.7-2-1.9.2-.8-4.1-2.7-3.9v-1.3c-1.45.41.05-1.7-1.4-1.3v-2c-1.14.33-.53-.73-.7-1.3-5.73-9.8-14.35-19-19.3-29.59-5.71-7.79-16.23-34-29.1-19.11-.68,2.79-2.47,4.82-2.8,7.2-1.76.69-2.07,4.55-4.7,5.91.05.76,0,.68-.7.7v-3.31c3.72-5.54,2.29-13.71,10.6-15.79,7.09-10.31-6.17-16.53-12.6-21-6.48-3.2-12-10.47-17.7-15.2-11.92-8.8-27.75-26.45-35.1-3.3.81,2.31-3.1,4.66-5.2,4.6C484,438,477.85,446.05,472,453.18c-2.26,3.22-.11,12.23.6,15.81-4.27-4.74-17.13-5.78-21.7-2.1-2.35,0-5.5,3.46-7.8,4-3.93,3.55-12.42,2.58-15.1,7.9-3.2-2.41-1.4-7.41-6-8.61-10.2-1.69-25.18.07-31.6,3.2-2.83-.22-1.54,1.15-4.6.7-2.37,1.87-8.58,8.31-11.8,3.31-3.16-.29.45-.94-3.3-.7-8.35-2.38-16,8.43-22.4,15.09-14.3-.09-25.8,6.41-14.5,20.41-2.7-.43-9-1-9.9.69-.72.37-2.34-.63-2,.71-1.22.59-10,2.47-11.1,4.69-7.54,2.16-11.41,11-18.4,13.21-5.86,5-9.53,10.84-14.5,16.4-1.81,2.85-3.3,7.29-5.4,9.9.34,2-2.06,2.47-2,4.59-7.95,8.49-12.84,16.31-18.6,26.6-8.22,7-10.42,19.39-3.8,26.9-11.12-8.34-14.66.8-20.5,9.7-13.29,13,8.07,31.66,17.7,40.5h1.3c1,2.55,7.77-.48,6.7,4,2.22,5.68,7.73,7.77,14.5,8.49,1.47,13.47,18.91,10.15,28.9,9.3,6.91-6.28,1.24-8.74.6-14.4,6.9-6.4,4,5.7,9.2,5.9.4,2.3,5.9.5,7.2,1.4-7.25,8.44-.14,13.51,6.6,17.71,6.64,6.49,21.34,4.58,26.3,8.29h3.9c0,.3,1.5,1.5,1.3,0,.26-.2,4.76.64,3.9-.69h2.6c-.4-1.7,3-.5,2.6-2.1,10.67-8.61,7,2.57,21.1-5.3-4.68,12.71,7.39,11.13,13.2,15.3,2.08-.18.62,1.1,3.3.7-.42,1.44,1.72,0,1.3,1.4,5.83,1,12.71,2.49,17.8-1.4-1.11-1.58,13-.31,13.2-.7.6,1.8,1.1,3.6,2.6,4.6,17.4,9.6,15.9-15.2,23.6,3.3-19.7.5-9.6,10.1-17.1,11.2-1.2-6.93-9.21-5.91-11.8-11.9-.74-.15-2.35.49-2-.7-6.37-1.48-15.32,1.39-22.4.7-13.43,9.62-2.57-9.46-28.2-12-3.86-2-13.87-3.1-12.5,6.49-9.76-3.47-28.16-12.53-21.7,6.71-11.24,0-4.66-15.32-14.4-17.9-5.66-1-13.43-3.1-17.1-7.91-2.47-1.35-16.29-5.17-19.7-2-11,2.28,1.89,11.07-3.4,12.6-4.11,6.82.54,9.87,1.2,16.4,2.3,5.2,9.5,8.2,9.2,13.8-2.26,3,2.17,10,4.1,11.9,2.11,5.78,3.57,10.42,8.6,14.61,5.16,8,6.7,4.48,6.6,15.1,20.7,14.81,1.49,6.64,9.2,27,3.94,3.68,6,3,8.6-.71-2.58-4.55-9.74-17.2,1.3-9.8,4.3.6,6.5,2.7,9.9-.6,7.3.9,7.8,11,17.8,9.2,6.51-9.29,12.78-2.34,2.6,4-2.58,1.87-.72,6.84-.6,9.19-7.56,17.32,3.72,17.75,19,14.4,5.7,1,12.9,3.1,16.4-2.7C400.3,830,401.23,829.75,401.9,829.78Zm217-238.4c1.28-.59.49,2.14.7,2.61,1.22-.46.52,1.47.7,2,1.7-.18,1.25,5.1,3.4,5.29v1.3c1.1-.7,1.7,3.5,2,3.9,2.27.4,1.73,5.47,3.4,5.3.27.6-.57,2.43.7,2,.27.59-.56,2.44.7,2,.16.64-.37,1.57.7,1.3v2c1-.28.6.72.7,1.31,3.42,4.54,2.61,14.34,3.5,19.69,1.33-.71.46,2.91.7,3.31,1.28-.62.49,2.15.7,2.59,2.92,6.61,7.72,20.14,17.8,17,12.49-15,5.52-24.93,9.9-37.5,10,3.94-3.57,21.6,6.6,26.41.7,2.59,6.9-2.31,10.5-.61.27,1.29,6.39,2.46,6.6,1.31h2c-.39-1,.79-.59,1.3-.7,2.7-1.3,5.6-7.15,9.2-7.9.7-.6,1.6-1.6,1.3-2.6,4-2.29,3.41-8.78,3.4-12.5,14,2.2,16.4-6.1,17.1-19.1-5.1-11.35,13.18-30.85-7.3-32.19-11.61-7.1-12.46,8.8-12.5,15v2c-1-.34-.61.76-.7,1.31-.52.1-2.4,2.52-2,3.89-3.2,1.3-1.1,4.6-5.2,5.3.1-1.3-.5-.5-.7-2,1.8.4.4-3.5,2-3.3.1-.6-.45-2.41.7-2,.1-.59-.44-2.42.7-2-.86-3.66,2.65-5.06,2.4-9.31-9.82-14.6-.17-17.76-21-23.89-.3-2.21-6.3-.51-6.6-2.71-1.86.33-.73-1-2.6-.7-8.07-7.1-16.87-3.8-22.3,1.91-10-4-9.06-19.67-23.7-14.51C615.28,548.45,622.65,579.48,618.9,591.38Zm4,206.4c-.75-2.9-.72-7.71-2.7-8.5-.63-.41.82-2.55-.7-2-.5-.49.61-1.68-.7-1.3v-2c-1.7.4-.5-3-2.1-2.6-.61-.37.81-2.58-.7-2-2.84-9.84-5.41-23.66-20.5-21.81,3.45-7.05,1.85-19.93-8.5-14.3-4.07,8-6.66,16.55-11.9,25-2.6,15.4,14.4,17.8,5.2,35.5-3.93,6-7.68,15.6-6.7,24.41-12.57-20,7.2-18.32,5.9-37.6-9.17-10.9-8.77-11-8.6-26.41-5.75-4.6-10.19,4.06-11.2,8.51-9.59.89-1.83-3.27,0-7.21,0-.47,0-.89-.7-.69v-2.61a27.72,27.72,0,0,0-7.9-7.89c.13-5.82-2.89-19.51,6.6-13.1-6.27,10.76,4.8,23.27,15,15.8,5.72-4.61,34.09-46.43,7.3-36.9-4.73-6.75-13.39,2.35-18.3,1.49-2.75,2.07-8,2.12-9.9,6-12.38,17.12-6.28-4.83-24.4,6.49-12.33,4.49-15.06,21.12-21.7,30.31.81-5.38-3.82-10.3-7.9-7.91-.31.47-3.32-.75-2.6.71-.43.29-1.71-.47-1.3.7-1.52.08-3.44-.1-4,1.69-1.5-.4-1.9,1-2.6,2-2.65-.54-2,2.77-3.9,3.31.3,2.19-1.9,1.29-1.3,4-.91-.23-.7.68-.7,1.31-2.76,3.89-12.39,5.22-11.4,13.8-4.69-.73-9.1-1-11.8,2.09-7.12-1.19-14.55,1.63-16.6,6.61v2c-1.1-.48-.6,1.49-.7,2-.83-.29-.76.71-.7,1.3-2.5.59-.4,7.29-1.4,7.89-6.59,5.12-17.22,8.92-15.8,19.9-2.4,1.8-7.9-1.8-8.6.7h-2c.61,1.17-1.58.56-2,.71-.37,1.45-3.41,1.39-4,3.29-8,5.75-.36,18.48.1,25.61v2c1.12-.4.37.9.6,1.3,1.31-.54.45,1.54.7,2,8.48,11.26,18.49,33.94,34.3,18.89,13.1-5.6-.45-8.47,19-6.59,2.8-2.21,9.2.09,11.2-5.31,5.1-.3,10.3,1.4,9.8-5.3-3-4.09,6.33-6.88,4.6-14.49,2.9-.11,2.9,2.49,4.6,3.29-3.72,13.18.86,19.3,13.8,15.8,1.65,2.45,6.18,1.31,8.5,1.3-.29-1.12.71-.54,1.3-.7,4.48-3.49,6.44,6,17.7,6.6,5.81,6.21,19,2,24.4-1.2,3.81-4,11.84-10.68,13.8-15.8,1.28.45,2.27-4.42,2.1-5.19,2,.13.51-6,3.4-1.9,7.35,3.34,13-4.75,18.3-7.11a35.66,35.66,0,0,1,11.2-6.7c-.43-1.44,1.72,0,1.3-1.4,8.92-3.45,15.77-9,11.9-20.49C623.08,811.59,622.86,803.38,622.9,797.78Zm82.1,9.4c.67-14.49-5.35-21.1-11.9-30.19-2.14-8.15-12.87-25.21-25.2-15.6.2-2.87,4.05-4.25,5.9-6,6.91-12.41-5.14-12.88-6.7-17.79,1.67-.5,2-4.93,2-6.6,1.46.9.39-5,.7-5.31-1.37.79-.44-3.53-.7-3.9-1.28.63-.49-2.16-.7-2.6-1.21.53-.53-1.52-.7-2-1.21.54-.53-1.52-.7-2-1.2.54-.53-1.52-.7-2-3.32-7.08-2.9-9.75-11.2-9.89,2.19-7.08-.31-16.24-3.3-22.91-9.14-24.74-21-9.36-29.1,5.91-2.11,7.84-12,10.3-12.5,21.09-5.5-.8-8.7,1.2-11.2,4.6.09.71.31,2.35-.7,2v2.59c-1.44-.88-.4,4.29-.7,4.61-2.62,3-.42,9.48-.7,13.09,1.7-.4.5,3,2.1,2.6.52,3,3.67,4.68,3.4,7.9,1.23-.48.5,1.5.7,2,1.23-.49.51,1.49.7,2,.83,0,2.09,2.5,2.8,3.29.53-.3,6.67.76,5.9-.69,6.1-1,2.8,5,2,8.49,2,5.06,4.75,12.2,5.2,17.1,1.6-.7,1.1,4.6,2.7,3.9v1.3c2.05,1.08,2.7,6.71,6,6.6,1.72,11.89-8.65,36.86,5.2,46.8,23.41,14.91,30.24-4.37,37.2,10.9h2c-.2,2,4.8.1,4.6,2.1.38-.14,2.62-.26,2,.7a11,11,0,0,1,6.6,4.6c23.88,18.14,13.58-10.85,17.1-25C694.24,821.55,706.17,820,705,807.18Zm47-100.4c-4.5-6.7-9.7-1.4-9.2-10.5,2.66-7.43-9.2-16.89-17-13.89-2.7,2.5-5.56,5-9.9,5.9,15.11-8.25,17.87-17.44,9.8-30.41.78-40.16-17.72-19.31-31.7-1.59-5.71,1.85-15.59-2.24-19.7,2.8-3.87,0-8.59-.65-10.5,3.3,2.9,9.34,9.94-5.59,14.5,3.3-.55,4.58-13.08,2.28-15.2,5.3-12.49,4.93,2.45,19.32,3.9,27.59,2.59,4.44,3.55,10.32,10,4,3.4-9.1,14.6-.8,16.5-8,1.4-8,.2-14,9.4-6.6-.91,3.28-6.83,4-5.9,7.9-1.62,6-5.28,4.68-11.9,5.3-6.9,2.4-14.3,15.7-3.2,18.5v2c-11.56,1.48-1.22,25,3.6,29.9,9-.4,4.28,6.89,12,13.8-3,9.1,11,26,17.1,13.8,2-1.14,2.73-4.84,5.3-4.7,9.89-4.1,14.73-23.24,22.3-32.39,3.1-1.71-1.4-6.81-1.3-9.21C755.1,734,755.5,716.58,752,706.78Zm138.3-467c-22.1-6.9-23.9,21.2-9.8,28.9,1.12,6.38-1.06,15.84,3.5,20.5.65,0,1.55-.25,1.3.7.64,0,1.56-.25,1.3.7,4.34-.13,5.18,5.93,9.2,6.61,8.82,7.92,13.2-6.75,16-11.11-.29-2.46,1.1-4.6.7-7.2,1.5,1,.37-6.35.7-6.6,1.45.92.39-5,.7-5.3,2-.2,1-7.8.7-8.6-2.63-2.29-4.52-3.62-7.8-3.39C901.6,251.47,895.45,245,890.3,239.78Zm-76.6-4.7c8,2.76,12.26-8.82,18.6-7.7-2.57,20.43,47.39,11.45,50-1.4,0-.6-.38-2.41.7-2v-2.6c1.9.2.8-4.1,2.7-3.9,5.81-9.31,7.06-31.45,3.9-42.1-7.16-5.1-11.51,5.91-17.1,7.91-4.71,6.37-11.76-4.7-18.4.6-5.06,7.72-20.91,5.8-17,18.49,4.75,12.39-7.68,2.63-11.2,7.9C817.53,215.21,812.69,224.33,813.7,235.08Zm-18,27.7c2,.1.1,4.4,2.7,4.6v1.3c2.41,1.5,3.25,6.7,6,8.61-.61,2.09,2.59,1.78,2,3.89,1.21,1.31,3.14,2.72,3.3,4.6,2.82,1.15,2.07,4.68,4.7,6,.35.62-.63,2.4.7,2,.35.62-.62,2.42.7,2,.44.51-.78,3.94.7,3.3.51,6.91,8.66,11.76,8,17.81,2.16,4,5.26,11.5,9,15.79.16.5-.36,1.67.7,1.3.15.49-.36,1.68.7,1.3-.32,1.87,1,.74.7,2.6,2.64,8.86,16.72,13.67,21.5,21.8,2.47,2.09,4.87,4.63,5.3,7.2,1.63-.53-.23,2.54,1.4,2v4.6c2-.2.1,4.8,2.1,4.6,0,.29-.26,1.82.7,1.3.4,4.56,5.56,7.57,8.6,11.1,10.67,5.23,20.36,14.15,29.6,24.3,13,10.42,8.31-12,9.3-21.8,7.09-8.83,37.09-25.84,29-34.79-5.22-6.92-1.84-23.1-13.2-25-12.68-9.76-18.28-30.27-36.8-31.7-4.84-5.64-9.92-9.67-17.7-2.7-1.1,2.89-7.9-1.21-9.2-1.31-5-1.15-13.11,5.12-16.5,1.91-6.81-12.34-28.31,0-21.7-9.8,5.4,1.52,15.46-6.84,18.4.09,4.33,6.1,9,8.08,13.8,3.8,4.88-2.26,14.83,1.92,15.8-4.59,3.4-2.41-1.2-11.61,2-14.51,1.2-7.7-4.8-9.2-8.7-13.1-.89-3.48-2.4-11-7.3-12.5-2.3-2.8-8.3,3-9.9,0a72.51,72.51,0,0,0-18.4-3.39c-5.47-4.25-17.08-2.64-21.6,2.2C806.34,249.34,797.38,253.36,795.7,262.78Zm-29.8,5.4c-26,19.75-3.84-4.76-38.1-8,.6-1.28-2.28-.46-2.6-.69.45-1.17-1.61-.54-2-.7.57-1.46-2.45-.21-2.74-.87-3.15-3.24-9.69,1.7-12.33,1.36-9.34-1.72-21-1.16-29-2.49-.15,0-2.07,0-2,0,.27,1.21-.83.48-1.3.7.32,1.39-1,.24-1.28.81.19.86-1.79,1.38-2.22,1.08-6.77-6.58-22.77-13.55-26.43.09-4.34-.18-8.25-4.12-12.2-2.45-8.25,2.75-16.46,9.6-24,.62-14.93.21-14.26,19.85-9.92,27,6.07,7.59,8.24,23-.59,31.16-5.41,10.48,2.25,27.28,11.38,29,1.36-1,.56,6.69.57,6.6-1.77,0-.08,4.89-2,4.61,0,.15,0,2.07,0,2-1.63.65-2.88,5.92-3.61,8.5-1.46,0-.61,3.15-1.4,3.88-1.5-.18-.48,3.06-2,2.63,0,.12,0,1.37,0,1.29-1-.38-.6.92-.7,1.31-1.49-.34.1,1.71-1.39,1.3.07.72.12,1.59-.7,1.3.08.73.09,1.59-.7,1.3a62.28,62.28,0,0,0-1.45,11.37c-6.55,10.26,3.92,21.91,5.33,29.53-9.43,1.78-15.13,8.81-19.79,15-1.12-.56-.47,1.26-.77,1.26-1.15-.52-1.49,3.83-2,3.93-1.6-.05-.27,3.74-2,3.32,0,.12,0,1.47,0,1.39-1-.48-.62,1-.7,1.3-.29,0-.89-.12-.69.33-6.53,14.65-.08,17.32,8,28.17,4.85,7.71,12.3,28,23.06,25.6,2.15-.31-.77,7.35.69,6.6.56.59-.89,4.54.7,3.9.31.74-.48,1.5.7,1.3.42.67-.67,2.38.7,2v1.3c1.9-.3.2,4.2,2.1,3.9.46.5-.71,3.09.6,2.6.4.63-.66,2.41.7,2,.45.57-.75,3.13.7,2.6.16.69-.22,1,.7.9.28.66-.46,1.56.7,1.3,2.18,8.33,12.52,10.68,18.3,13.31-.46,1.18,1.48.53,2,.69-.26,1,.69.63,1.3.7-.47,1.19,1.48.54,2,.7-.47,1.19,1.48.54,2,.7-.47,1.19,1.48.54,2,.7-.47,1.06,1.59.45,2,.6-.62,1.28,2.25.5,2.7.7-.6,1.27,2.14.5,2.6.7-.87,1.69,3.36.62,3.9.91,3.9,3.69,10.2-2.11,14.5-1.91-.6,8.5,7.09,12.13,11.8,13.31-.3,1.89,4.2.19,3.9,2.09h1.3c-.52,1.17,1.52.56,2,.7-.36,1,.77.66,1.3.7-.53,1.63,2.53-.22,2,1.4h2.9c-.63,1.26,2.16.51,2.6.71-.72,1.33,2.9.46,3.3.7.6,2.39,7.3-.21,7.9,2.09,15.27,1.3,12.6,12.95,30.3-2.7,14.17-2.46,4.76-11,28-17.7-5.87,3.12-10.54,9.3-16.4,12.91-11,9.83-22.93,11.54-9.8,27-3.6,9.4-6.8-4-11.3,8.5v17.1c-.3,2.3-5.3,11.1-1.9,13.8.57.34-.78,2.62.7,2,.56.33-.78,2.63.7,2,.62.26-.87,3.36.7,2.6-1,10.29,1.41,11.8,6,19.8-7,10,7.28,32,13.6,40.9.72,9.32,15.54,15.24,22.4,8.4,9.93-5,16.5-20.67,27.1-25.8,2.91-3.49,5-7.26,7.4-10.5.18-.86-.5-2.22.7-2v-2c1.44.39,0-1.69,1.4-1.3,1.28-4.42,4.6-10.36,3.5-15.7,14.85,3.6,21.24-16.24,27-23,4.62-11.18,22.85-12.43,25.1-26.91,6.82,0,20.62-22.63,17.3-29v-3.3c.85.38.74-.77.7-1.3.85.38.74-.77.7-1.3.85.38.74-.77.7-1.3,1.1.3,1-1.29,1.4-2,1-.5,1.5-.8,1.3-2,1.22-.48,1-2.79,2-2.61-.33-1.83,1-.76.7-2.6,2.26-.93,2-6.93,4.1-7.19,2.66-9.49,5.23-21-8.5-15.8-.8,2.39-7.8-.21-8.6,2.09-6.76,0-13.7,3.66-20.4,1.3,1.16-1.6-8.45-.29-8.6-.7,0-1.9-3.8-.3-4-2.7-.49,0-5.11-2.15-4.6-2.69-9.07-1.6-16.6,2.83-22.4,3.5.61,1.29-2.15.47-2.6.7.61,1.29-2.15.47-2.6.7.61,1.29-2.15.47-2.6.7.61,1.29-2.15.47-2.6.7.86,1.38-4.27.43-4.6.7.62,1.73-3.22-.34-2.6,1.39h-2c.4,1.7-3,.5-2.6,2.1-2.2-.7-2.2,2.7-4,2.6-1.67,8.5-16.54,5.69-22,10,.85-1.65,4.31-1.31,5.5-4.19,4.93-1.94,8.47-9.86,14.4-9.3-.71-1.34,2.9-.46,3.3-.71-.8-1.35,3.55-.45,3.9-.7-.59-1.31,2.13-.46,2.6-.7-.45-1.28,1.47-.47,2-.7-.45-1.28,1.47-.47,2-.7,1.81-2.34,6.65-4.36,7.9-6.6,2.14.4,10.3-.38,11.2-.7-.4-1.45,1.7.06,1.3-1.4h2c-.48-1.27,1.49-.47,2-.7-.4-1.45,1.7.06,1.3-1.4,4,.35,5.68-6,10.6-3.19,1.15,5.21,9.44,7.33,11.8,9.29,5.12,1.26,14.32,1,19-1.3,6-.24,10.14-.77,14.5-2.8,3.78-4.84,14.65-3.44,17.2-10.6,0-.58-.33-2.38.6-2,0-.66-.34-2.4.7-2a5.47,5.47,0,0,1,2.6-4.7c.5-.8.1-2.9,1.4-2.6.5-.7.1-2.8,1.3-2.6.6-1.1-.1-4,1.4-3.9-.06-.62-.33-2.44.7-2-.24-.81-.07-1.45.7-1.31,2.1-13.59,7.66-40-.6-55.2-10.65-13.44-29.73-40.17-49.6-31.3-3.49,7.26-8.91,1.25-13.1,1.2-4-3.51-17.11,4.53-19.8,4-1.4,2.9-7.7-.6-9.2-.6,1.2-2.8,6.8-.2,7.9-2.7,8.07.16,14.14-11.16,22.6-4.79,15.67,2.15,11.79-10.57,8.6-18.41-3.26-5.89-4.12-14.61-9.4-19-4.27-1.42-7.28-6.77-11.8-7.3-3.4-4.11-7.4,3-10.5,3.19,1.57-9.64,1.91-12.11-1.4-19.09-9.88-8.62-8.48-2-9.9-15.11-.06-.11.41-2.8-.7-2-.06-.12.41-2.81-.7-2-.06-.11.41-2.82-.7-2,.3-2.42-1.36-3.73-1.4-6.51-2.76-5.17-5.11-6.05-10.7-8.49.3-2.71,2.7-11.41-.7-13.21C795.17,278.85,782.74,256.47,765.9,268.18Zm-52-27c-.3,3.36-1,6.68,1.41,9.6,3.48.44,6.68,1.8,9.69,2-.29,1.61,1.66-.24,1.31,1.39.8.14,2.4-.42,2,.7.15,0,2.07,0,2,0-.14,1.77,8.36,1.58,8.61,3.39.76.13,2.43-.41,2,.7.43,0,2.82-.09,2.84.16,21.89,17.66,34-4.18,3-11.85C738.07,245.7,722.87,227.21,713.9,241.18Zm-126.3-37.6c4.31,8.11,13.34,13.06,14.5,20.51,2,1.19,2.94,9.79,3.5,11.19,1.51,0,1.63,6.53,3.5,6.5,1,3,3.84,6.13,5.3,8.51.4,5.39,9.63,7.08,13.2,3.39.59-.26,1.6.45,1.3-.7.52-.36,2.48.64,2-.7.51-.36,2.49.64,2-.7.57-.25,1.61.44,1.3-.7,2.52-.47,6.6-3,6.6-6.69,1.68.42-.38-2.7,1.7-2,.6-7.71,5.9,2.49,11.8,1.29,8.36-8.87,12.92,8.17,20.4,4.61,3.18-.22,10.42-.1,11.8,2.69,5.7,1.89,19.79.1,19.8-8.5,1.84-3.69,7.45-6.56,7.3-13.79-4.25-12.87-21.62-12.41-31-19.8-2.86-7.17-12-11.3-16.4-16.5-6-3.77-10.4-12.56-16.4-14.6-8.24.52-16.69-6.76-25.7-6.61-13.94,6.62-2.48,11.38.7,19.8-3.4-1-5.14-4-7.9-4,.53-1.63-2.53.22-2-1.41-1.88,0-5.53-2.82-5.2-5.39-3-2.32,4.46-9.81,4.6-15.1-6.16-11.09-11-22-19.9-6,0,.76.35,2.3-.7,2,0,.75.35,2.31-.7,2,.27,4.21-1.09,10.11-.7,14.49.2-.4,1.5,1.6,0,1.3.36,2.65-.47,8.72-.7,10.5-1.19-.49-.54,1.5-.7,2C589,192,586.19,199.55,587.6,203.58Zm-2.8,10.2c-11.69-8.17-25.58,14.35-34.9,14.5.56.8-4,2.41-4.6,2.1-.6,2.4-7.3-.2-7.9,2.1-9.52-.85-14.69,6.06-21.7,11.91-2,11.44-13.48,30-.6,38.29-20.78-2.05-25.73,21.43-32.5,34.3-2.48,13.76-10.34,33.41-2.61,46.6.39.45-.51,1.71.71,1.3v2c1.07-.32.56.57.7,1.1,4.93,7.38,15.64,14.75,15.8,26.4,1.7-.4.5,3,2.1,2.6-.4,1.5,1,1.9,2,2.6a2.25,2.25,0,0,0,2.6,2.6c3.24,4.14,7.79,4.8,12.5,4.71,4.09,2.24,6.49,6.85,11.2,10.6,2.46,5.2,8.64,7.92,13.1,10.6,3.93,4.57,7.64,9.39,13.2,11.2,3.34,3.28,6.87,6.8,12.6,5.89,8.39-12.82,23.33-21.72,22.4-38.79.6-2.81-1.6-1.91-1.3-4-8.8-4.1,3-7.5,3.2-14.5-.36-7.71,2.16-11.58,5.1-17.19,1.9.19.8-4.11,2.7-3.91-.09-.66-.3-2.37.7-2,5.49-20,2.66-10.86-4.6-26.39-1.23.48-.51-1.5-.7-2-1.23.5-.51-1.49-.7-2-1.23.5-.51-1.49-.7-2-1.23.5-.51-1.5-.7-2-1.7.4-.5-3-2.1-2.6-.37-.46.64-2.51-.7-2-.46-.35.79-4.06-.7-3.3,3.26-14.94,13.76-19.69,4.4-36.1-1.3.19-1-1.71-1.4-2.61-1-.5-1.5-.8-1.3-2-1.45.42,0-1.71-1.4-1.3.58-3.05-2.72-4.77-4-7.29-8.7-2.11-5.6,13.19-17,16.49.7-1.6.9-5.1,2.7-5.3v-2c1.16.55.56-1.53.7-2,1.57-.06,1.6-6.51,3.5-6.5,1.79-6.61,10.83-6.65,14.4-11.89,5.59-6.06,15.41-18,8.4-27.71-1.16-7-4.76-16.7-12.6-20.5ZM143.2,872.48c.3,4,4,3.4,7.9,3.9C152,870.28,148.2,868.88,143.2,872.48Zm-4.5-82.3c-.1-.63.09-.78.7-.7v-2c2.9-1.66-2-6-3.3-3.3C127.13,783,133.6,789.57,138.7,790.18Zm242.2,68.4c-.6-5.5-5.9-1.5-4.7,2.7C378.4,860.78,379.2,859.08,380.9,858.58Zm157.3-556.2c-4.35-1.62-5.35,12-2.7,13.21C538.18,308.78,545.94,307.89,538.2,302.38ZM75.4,525.48c1.45.11,1.83,1.29,2.7,1.41C84.76,522.41,75.24,521.13,75.4,525.48Zm-49.3-54.6c-.4-6.7-5.2-2.3-5.9,2C23.3,473,23.7,471.48,26.1,470.88Zm108.6,169.8c.4-4.56-5.46-3.41-3.3-1.29C130.58,641.51,133.73,640.43,134.7,640.68Zm-25-44.7c.4-2,.9-3.9,1.3-5.9C101.6,590.88,104.3,599.68,109.7,596Zm-17.1-78.3c-6.63-15.83-15.68,12-.7,1.3C92.6,518.28,92.2,519,92.6,517.68ZM30.7,413.58c-.17.62.47,2.47-.7,2,0,.15,0,2.07,0,2-1.38-.5-.26,1.9-.85,2.15-2.21,3.52-4.35,15.44,2.33,10.92,9.57-4.59-1.72-30.92,6.33-40.07-17.22,2-1.4,12-7.1,23Zm94.1,44c-5.7-1.4-4.2-13.7-7.9-15.7-5,16.57,10.88,12.82.6,31.51,1.9,6.29,3.5-7.31,13.9-4C131.2,463.78,127.7,460.48,124.8,457.58ZM76.1,44.38c1.37.8.44-3.53.7-3.9C75.42,39.69,76.36,44,76.1,44.38Zm115.8,138.2c.3,3.4,1.5,4.4,5.3,4.6C197.1,182.88,195.1,180.88,191.9,182.58Zm86.2,712.2c-1-.7-2.3-1.2-1.9-2.6-5.8-11.85-1.57,3.72-3.6,8.7C278.15,901.3,282.56,901.24,278.1,894.78ZM451.9,4.28c-.43,5,4.12,9.64.7,13-1,4.19,2.2,11.59,7.2,9.19-1.7-5.1-3.1-8.3.6-11.8,4.29-.34,6.23,1.39,8,2.7,9.47-.69,9.74-10.31,7.2-16.5C472.36,1.63,452.11-1.48,451.9,4.28Zm-362,369.8c-2.74,7.14,2.93,12.17,8.6,14.4C107.9,396.78,92.65,375.48,89.9,374.08ZM70.3.88c-2.31.34-5.72-1.32-4.8,2.6-1.91,4.52-.82,13.78-1.4,19.1,1.2.51,2.57.78,2.8,2.1.52.15,2.48-.47,2,.7,3.23-.16,5.91,5.54,6.6,8.4C79.5,23.62,63.87,13.58,70.3.88ZM49.1,376.78c-2.15.64-4.42,3.15-4.6,5.2C46.2,380.38,49.7,379.58,49.1,376.78Zm29,412.7c-2.1,5.7,1.2,7,5.2,4.6A6.22,6.22,0,0,0,78.1,789.48ZM81.3,829h3.9C85.26,827.78,80.33,826.83,81.3,829Zm3.4,70.9c1.94-1.14,2-4,4-5.9.09-2.72,10.94-9.18,13.2-9.2,5.3-3.8-4.9-5.9-1.5-13-10.46-1.7-1.31,7.83-7.3,13.1-9.8,2.3-7.6,10.1-14.2,16C79.6,900.58,85.2,901.68,84.7,899.88Zm-42.8-30.8H39.3C37,880.53,50,875.17,41.9,869.08Zm37.5-368.6c5.22,2.77,1.65-9.29.1-10.5C77.68,494,77,496.68,79.4,500.48ZM47.8,890.88c-6.25-1.91-4.56,8.54-1.9,6,.52-.17,2.48.49,2-.7h2c3.54-1.95,10,2.77,8.6-5.9C54.57,891.65,51.41,894.78,47.8,890.88ZM63.6,885c-.3-3.9-2.1-5-5.3-5.3C58.61,884.57,58.19,890.25,63.6,885ZM1,348.48a29.31,29.31,0,0,0-.5-2.9v15.3C1.2,357.68,4.4,349.48,1,348.48ZM24.1,567c1.8-1.7-3.1-5.9-5.2-6.6C17,568,16.24,573.5,24.1,567Zm70.4,215.9c1.06-2.73-4.25,8.59-7.3,9.8-.2,2.8,3.7,1.9,5.3,2C96.15,792.26,93.06,786.2,94.5,782.88ZM3.1,404.38c2.3-2.7,6.5-4.8,7.9-7.9-3.3.4-8,2.7-10.5,0,.34.15-.77,14.15.6,13.11C.89,407.59,3.15,406.77,3.1,404.38Zm0,47.4A15.88,15.88,0,0,0,.5,447C.92,449.25-.93,454,3.1,451.78Zm5.8,132.3c7.42-12.73-1.29-2.12-8.4-3C-.91,588.54,4.27,582.83,8.9,584.08Zm1396.2,311c5.29-5.21,10.1-10.73,13.2-17,6.2-7.51,19.4-7,21.7-18.51-6.65-11.63-5.67.65-9.9,5.61-1.5-.41-1.9,1-2.6,2-.9.4-2.8.1-2.6,1.4-.6.1-1.59-.32-1.3.7h-2c.61,1.27-2.15.49-2.6.7.53,1.62-2.53-.23-2,1.4-5.52,2-6.77,9-9.3,13.79-2.39,4-20.83,16.83-6.9,15.71C1402.7,899.48,1403.5,897.18,1405.1,895.08ZM1049.2.88h-12.7c-.1,1.06,1.06.09.7,2,1-.28.64.7.7,1.3,1,.39,2.25,2.76,2.7,4.59,2.32.54,1.38,4.05,3.4,4.61.3,3.31,3.39,8.78.1,12.49-2.32,3.3-8.76,3-12.5,3.31-15.37,12.24-11.37-4.11-27-3.21-.3-2.2-6.3-.5-6.6-2.7-.33.75-2.14.83-3.3.7-1.16,1.76-4.32,2.05-5.9,4-4,7.9,10.62,1.35,13.4,5.2,6.48-1.37,16.68,13,23.8,9.3,10.6-11.43,25.18-3,34.2-10.6,1.92-4.77-1-10.45-2.6-13.8-1.6.39-.4-3-2.1-2.61-.17-.55.37-1.62-.7-1.29-.27-.48.56-2.52-.7-2-.18-.53.41-1.77-.7-1.4v-2c-1.72.11-1.94-6-3.5-5.9C1049.66,2.46,1050.44.33,1049.2.88ZM611.9,492.58v1.3C613,494,612.45,493.06,611.9,492.58ZM1654.8,18.78c-1.86-.75.46,4.66-1.4,3.9-.2.52.57,3.17-.7,2.6v2.6c-1.33-.71-.46,2.91-.7,3.31-1.18-.49-.54,1.49-.7,2-1.44-.41,0,1.7-1.4,1.29-4.28,6.42-13.3,10.35-15.8,20.41,7.86-2.82,19.6-24.5,22.4-4-1.12,6.88.06,17.86-.7,26.89,19.29,27.08,8.52-13.85,8.4-22.89.09-5.46-5.42-19.3-2.6-25,1.08-4.65,2.68-18.6.7-23.7-1.5.1-.8-2.8-1.4-3.9-1,.2-.8-.7-1-1.4C1643-1.46,1658.88,8.11,1654.8,18.78Zm131.4,134.3c-.34,15.38-5.53,15.63-9.4,28.3,2.8,3.29,2.15,4.34,8,3.9.9-2,2.24-3.77,2-5.89,1.9.29.2-4.21,2.1-3.91,3-4.91,9.73-23.33-2.7-22.4ZM846.3,8.18c-.6-2.58,1.92-2.79,2-5.29,6.81-3.72-13-1.4-13.1-2-1.38,6.82,3.79,12,2.7,19.7-7.6,11.44-2.82,4.83,2.4,8.6,3.4,1.49,3,5.9,4,7.9C865.52,26.6,840.68,23.17,846.3,8.18ZM1773,91.78h0c7.26-7.27-2.89-11-.7.71C1772.92,92.57,1773.09,92.41,1773,91.78ZM868,1.58c-1.4,6.2,11.2,2.6,8.5-.7C875.6,1,868.5.48,868,1.58ZM286.7,443.28c1.21-2.38,1.35-7.95-.7-8.6C283.8,438.78,276.3,444.88,286.7,443.28Zm280.5,263.3c1.13-6.22-4-9.94-5.3-2.59C562.4,704.18,566,706.48,567.2,706.58ZM488.1,702c.48-2,1.15-2.73-1.3-3.3C485.5,700.08,486.2,701.68,488.1,702ZM323.5,414.28c9.33,8,.77-6.19-7.2-5.89C318,411.28,320.7,412.38,323.5,414.28Zm-21-8.6c17.23,2.23-2.84-8,.7-19.8-2.4-.8-.9,2.8-2.7,2.6.35.29-.81,8.21.7,7.2C301.83,398.92,298.66,403.43,302.5,405.68ZM741,.88c-4.36,16.57-15.55-3.3-18,13.8,1.7-1,5.4-.8,5.9-2.7.54-.06,3.15.48,2.6-.69,5.3-.11,13.8,11.59,12,15.09,0,2.55-1.11,7.58-.7,10.7-1.38-.79-.44,3.54-.7,3.91,1.27-.62.5,2.15.7,2.6,1.9-.31.2,4.19,2.1,3.89v1.3c1.19-.5.54,1.51.7,2,2.2.39.3,5.39,2,6.59,1.09,3.4,9.1,8.24,11.8,8,0-4.7-6.47-6.08-7.2-10.51-1.6.4-.4-3-2.1-2.6-.18-.47.48-2.42-.6-2-.37-.28.83-8.91-.7-7.9-.48-6.82-3.61-9.61,2-16.4.1-11.3-10.1-7-2.9-25.1ZM1785,900c5.67-4.13-2.37-13.62-1.6-17.69-3.52-7.59,4.24-17.86,1.9-25.71-1.41.88-.42-4.28-.7-4.6-1.41.88-.42-4.28-.7-4.6-1.44.94-.4-5-.7-5.3-1.9-1.2-.6-6.1-1.4-8.6-1.09-.57-3.55-8.25-4.1-9.09-1,.3-.63-.73-.7-1.31-1,.31-.63-.72-.7-1.3-1.6.41-.4-3-2.1-2.59v-2c-1,.32-.63-.74-.7-1.31-1.73.62.33-3.21-1.4-2.6-.29-2.21-1-11.42-.7-14.6,1.27.63.5-2.15.7-2.6,1.19.52.54-1.51.7-2,1.27.63.5-2.15.7-2.6,1.48,1.59,2.38-19.58.7-19.7.44-5.1-4.78-16.3-11.5-15.2,2.25,12.87,3.81,24.34,2.7,36.9-1.66,4-6.13,22.12-.1,27,1.81,3.12,4.55,8,6.7,11.11.17.45-.5,2.52.7,2,.21.4-.58,3.26.7,2.6-1.09,5.66,4.43,20,1.3,24.3-.79,4.53-5.14,12-1.5,17.81C1775.2,885.28,1773.1,905,1785,900Zm-715.6-654.9c.49-5.49-4.06-2.47-4,2C1067.9,247,1068.5,246.58,1069.4,245.08Zm-6-206.7c.92,2.49,4.26,3.08,2.6,0ZM1160.2,332c.1,3,4.6,2.7,4.6,0A9,9,0,0,0,1160.2,332Zm58.6,336.4c.87-4.14,3.87-1.92,3.3-8.5-.79-.67-4.35,3.74-4,4.6-3.19,2-3.5,7-4.1,9.3-1.18-.49-.54,1.5-.7,2-1.18-.5-.54,1.49-.7,2-2.66,5.66-3.42,24,8.5,13.79-.9-3.4-2.6-2-3.9-3.9C1215,684.1,1214.55,670.05,1218.8,668.38Zm-123-389.7c-11.8.2-3.1,7,1.3,1.3C1096.2,279.48,1096.3,279.48,1095.8,278.68Zm11.8-223.1c16.52-7.22-19.7-18.14-12.5,2.61C1099.22,57.65,1099.13,49.6,1107.6,55.58Zm514.9,834.7c-3.56-9.68,2.27-25.32-1.4-34.2.33-2.9-.45-8.52-.7-10.5-1,.2-.62-.64-.7-1.3-1.19.44-.54-1.45-.7-2-1.6.4-.4-3-2.1-2.6.2-2.4-2.3-2.7-2-4.8-4-3.13-6.11-6.19-6.6-10.59-4.71-4.13,2.3-19.44,2.7-23.71,8.75-31.27-11.88-52.13,17.3-76.39-3.26-2.69-8.91-.35-10.6,1.59-3.5.64-6.4,3.34-9.2,6-8.08,11.49-1.43,30.13-2,45.4,6.93,15.17-8,27.89-5.4,44.1-.24,11.29,13.86,16.54,14,24.4,3.07,3-1.17,16.37,2.1,19.09-.41,8.42,3.75,17.76-.1,24.9C1613.27,900.58,1624.34,906.72,1622.5,890.28ZM1383,900c-.13-3.05.58-16-1.4-16.5-.18-.7.5-2.38-.7-2v-2c-1.6.4-.4-3-2.1-2.6-.22-.87.53-2.22-.7-2-.12-.9.34-1.37-.7-1.3-.79-3.59-3.12-8.7-6.8-11.8.6-2.5-1.7-1.8-1.3-3.9-6.38-4.09-4.87-16.25-10-21.6.34-2-1-.82-.7-2.7-1,.25-.64-.68-.7-1.3-1.18.47-.55-1.47-.7-2-1,.26-.65-.68-.7-1.3-3.91-5.54-4.16-14.46-10.8-19.1,0-2.41-3.15-2.9-2.7-5.2-3.42-8,5.33-17.72,13.3-22.4a55,55,0,0,1,9.3-13.3c8.08-7.67,5.66-9.23,6.7-17.7-.78-7.09,5-11.5,7.3-17.79,7.28-8,2.05-26.43,6-36.3,2.79-5.66,10.37-11.32,7.3-18.9-3,9.11-10.63,11.65-12.3,19.7-1,7.48-1.56,16.34-2.1,25-2.76,9.27-9,14.73-12.6,21.69-3,2.41,1.5,11.51-3.3,18.41-2.6,2.65-5.39,7.38-8.5,9.29-3.52-.6-4.17,1.2-6.6,2.71-.69,4.63-5.69,6.56-6.6,10.49-3.31,2.1-2.3,9.28-7.3,9.9.41,1.44-1.71,0-1.3,1.41-10.2,1.7,5.8,7.9,6.6,11.2,0,3.47,1,6.64,1.4,9.19,1.44-.4,0,1.71,1.4,1.31-.35,2.61,2.4,4,2.1,6.59,1.2-.51.53,1.52.7,2,1.19-.53.53,1.51.7,2,3.65,4.57-.33,11.5-1.9,17.79,7.39-1.93,10.28,6,12.6,9.11-.4,4.79,5.7,7.79,5.3,12.59,3.66,5-3.4,12.56-8.5,11.8.92,1.5-5,.37-5.3.71-3.8,2.69-1.3,7.49,3.9,6.69,11.43,1.35,5.79-8.71,16.5-7.9C1376.49,885.28,1365.51,907.3,1383,900ZM1122,49.58h2.7C1125.5,44.48,1118.5,46.08,1122,49.58Zm94.8,568.8c-4.6,3.9-8,8.6-13.8,11.8C1206.7,641,1217.5,625.38,1216.8,618.38ZM480.2,721.68c.2,2.6-4.1,2.7-5.9,3.9.5,3.8,8.1,3.3,11.2,3.3-1,1.47,5.63.39,5.9.71,1.5,1.89,7,.59,9.9,1.39-1.2-1.9-5.5.3-5.9-2.1h-2.6c.49-1.19-1.49-.53-2-.7-1.44-3.15-6.2-5-6.6-8.5-2,0-.54-2.91-2-2.7C480.62,714.46,481.89,720.52,480.2,721.68ZM1294.4,889c-2,.59-1.6,5.4-4.7,6.5v1.3c-4.3,5-1.43,4.11,3.8,4.1,8.72-8.88,4.56-15,7.4-25.2-.35-2.45,1.06-4.16.7-6.6,3.6-3.5-2.5-8.9-1.3-12.5-1.73.61.33-3.2-1.4-2.6-.25-.55.7-4.58-.7-3.9-.3-6.46.56-13.36,2.1-17.79,5.6-8.1-2.64-21,11.3-22.4-.4-1.61,2.9-.41,2.6-2,1.56.23,2.31-2,3.9-2.69,2.86-6.34,0-10.66-5.3-15.11-1.47-10.88-4.38-30.39,0-40.2.22-1.37,1.46-7.53,3.5-8.5-.6-2.3,3.3-2.3,2.6-4.6,1.61-.78,2-2.2,2-3.89,1.17.54.55-1.54.7-2,3.63-5,1.15-18.93,4.9-25.7-.13-2.19,1.09-.53.7-3.3,1.43.43,0-1.72,1.4-1.3-.23-4,3.24-9.06,4.7-13.09-7.14,4.08-8.42,13.13-12.5,17.89,1.09,8.23,0,14-1.4,20.3-1.27-.58-.49,2.13-.7,2.61-1.2-.44-.53,1.45-.7,2-1.19-.44-.53,1.45-.7,2-1.44-.4,0,1.69-1.4,1.29-5.36,10.61-11.09,17.37-5.3,31.71.28,8.89-3.19,15.4-2.6,22.39.22,1-.86,5.39-2.1,5.21v1.29c-5.2,4.7-4.8,3.1-11.9,3.3-2.78,2.72-5.09,8.36-.1,11.21,1.31,2.43,4.09,18.59.6,20.39v1.3c-1.9-.2-.8,4.1-2.7,3.9v1.3c-3.7,1.8,2.2,10-1.4,11.2-.88,5.42-6.76,4.91-7.2,10.6C1302.65,845.92,1293.8,877.73,1294.4,889Zm44.2-36.3c.58-2,3.22-4.48-.6-4-2.25,2-3.73,3-3.4,7.31C1337.5,855.78,1336.4,853.08,1338.6,852.68ZM1763.8,119c8.21-17.41,11.32-33.75-1.3-4,.25.39-.64,4,.7,3.29C1763.16,118.8,1763.18,119.12,1763.8,119ZM656.6,771.08c.5,3.3-2,3.3-2,7.3C664,779,667,751.85,656.6,771.08ZM649.4,752c1.51,1.75,4.73-2.91,4.6-5.19C649.6,746.58,646.4,749.08,649.4,752Zm42.1-28.3c-.69,4.45,6.68,7.55,8,2.6C705.11,723.72,695.31,722.67,691.5,723.68Zm0-48.7c-6.4-2.36-6.38,2.42-1.3,4.6C694.06,680.09,693.84,677.69,691.5,675ZM548.7,775.68c1.7-.7,3.1-1.1,3.3-2.7C549.6,773.28,549.2,773.58,548.7,775.68Zm25,65.8c1.19.5.54-1.49.7-2C573.21,839,573.86,841,573.7,841.48Zm272.5-251.4c6.2.6,11.2.3,5.3-6C846.5,583.08,842.7,586.68,846.2,590.08Zm-86.2,21c2.2,1.3,6.4.2,6.6-2C764.7,609.78,759.7,608.38,760,611.08Zm26.3-57.2c-1.93-.62-1.14,1.56-1.3,2.61C786.93,557.11,786.14,554.93,786.3,553.88Zm-19.8-5.7c.2-.1.3-.1.5-.2C766.82,548,766.52,547.94,766.5,548.18ZM471.7,791.48c-1,2.8-1.3,9.7,2.6,9.8C476.1,797.78,475.1,792.08,471.7,791.48Zm270.5-188.9c.2,2.5,1.1,3.4,3.3,3.9C744.7,604.58,743.8,603,742.2,602.58Zm13.8,7.2c-1.1-1.2-4.9-2-7.2-2C748.33,613.3,757.69,613.06,756,609.78Zm-277.7-129c-4.46-7.12-5.74,6.86-7.3,10.6C474.6,488.48,483.7,486,478.3,480.78Zm-106.7,83.6v3.3C374.1,567.58,374.3,564.48,371.6,564.38Zm25.7,119.8c-4.7,2.34-7.82,7-10.5,11.9C392.23,693.57,407.06,688.9,397.3,684.18Zm18.4,69.1c5.65-1.36-1.37-9.11-6.7-5.89C410.1,750.88,413.9,750.58,415.7,753.28Zm-60.5-224.5c-13.21-1.18-6.14,6,1.3,9.31A17.49,17.49,0,0,0,355.2,528.78Zm48.7,238.3c5.46-1.1,7.31-2.32,9.9,2,4,1.09,9-2.11,13.8-.71,2.55,4.64,11.6,9.26,7.9.6-.6-4.3-3.9.2-5.3-2.7-2.8.1-10.3-7.3-12-9.9-1.9,1.1,0,3.1-2,3.3V761c-2.89,1.87-4.75,5.4-9.3,2C404.28,760.15,400,763.17,403.9,767.08Zm38.8,44.1c0,3.1.8,6.9,3.3,4.6C445.6,813.08,445.1,811.68,442.7,811.18ZM336.1,677.58c3.4,0,4.4-1.3,4.6-4.6C337.4,673.48,334.7,674.88,336.1,677.58Zm327.8-58.7c1.33.21-.14-1.17-.7-1.9v2.6C663.82,619.68,664,619.51,663.9,618.88ZM394.7,734.78c-.09-.59.29-1.46-.7-1.19v-5.31c-1.8-1.5-9.8,2.1-11.9-.7-2.81-.31-5.34-2.05-9.2-2.7.5,3.7.8,5.8,4.6,6,7.87-7.16,11.22,7.22,13.8,13.11C393.4,740.58,400.9,738.48,394.7,734.78ZM656,588.08h.7C664.1,579.28,651.8,575.08,656,588.08ZM344.5,729c-1.3,1-1.7,5.5.7,5.2v-4.6C344.67,729.64,344.38,729.6,344.5,729Zm0-.1Zm45.6,18.5c-1.84,4.88-1.12,11.17,5.9,10.5C395.3,755.88,392.1,747.38,390.1,747.38Z"/></g></g></svg>